<?xml version="1.0" encoding="UTF-8" standalone="no"?>
<!-- Created with Digital by H.Neemann -->
<!-- created: Mon Sep 25 15:13:33 ICT 2023 -->

<svg
   xmlns:svg="http://www.w3.org/2000/svg"
   xmlns="http://www.w3.org/2000/svg"
   width="67.8mm"
   height="54.6mm"
   viewBox="-84 -52 452 364">
<g stroke-linecap="square">
<path d="M 240,160 L 260,160" stroke="#0000b2" stroke-width="4.0" fill="none"/>
<path d="M 240,100 L 260,100" stroke="#0000b2" stroke-width="4.0" fill="none"/>
<path d="M 240,40 L 260,40" stroke="#0000b2" stroke-width="4.0" fill="none"/>
<path d="M -20,40 L 40,40 L 40,0 L 160,0" stroke="#0000b2" stroke-width="4.0" fill="none"/>
<path d="M 0,200 L 0,140 L 140,140 L 144,140" stroke="#0000b2" stroke-width="4.0" fill="none"/>
<path d="M 0,140 L 0,80 L 140,80" stroke="#0000b2" stroke-width="4.0" fill="none"/>
<path d="M 240,-20 L 260,-20" stroke="#0000b2" stroke-width="4.0" fill="none"/>
<path d="M -20,-20 L 0,-20 L 0,-40 L 160,-40" stroke="#0000b2" stroke-width="4.0" fill="none"/>
<path d="M 0,-20 L 0,20 L 160,20 L 164,20" stroke="#0000b2" stroke-width="4.0" fill="none"/>
<path d="M 40,240 L 40,180 L 140,180 L 144,180" stroke="#0000b2" stroke-width="4.0" fill="none"/>
<path d="M 240,280 L 260,280" stroke="#0000b2" stroke-width="4.0" fill="none"/>
<path d="M 40,180 L 40,120 L 140,120" stroke="#0000b2" stroke-width="4.0" fill="none"/>
<path d="M 240,220 L 260,220" stroke="#0000b2" stroke-width="4.0" fill="none"/>
<path d="M 40,40 L 40,60 L 160,60 L 164,60" stroke="#0000b2" stroke-width="4.0" fill="none"/>
<path d="M 154,260 L 140,260 L 0,260 L 0,200 L 160,200 L 174,200" stroke="#0000b2" stroke-width="4.0" fill="none"/>
<path d="M 0,20 L 0,80" stroke="#0000b2" stroke-width="4.0" fill="none"/>
<path d="M 154,300 L 140,300 L 40,300 L 40,240 L 160,240 L 174,240" stroke="#0000b2" stroke-width="4.0" fill="none"/>
<path d="M 40,60 L 40,120" stroke="#0000b2" stroke-width="4.0" fill="none"/>
<g>
<circle cx="40.0" cy="40.0" r="4.0" stroke="#0000b2" stroke-width="4.0" fill="#0000b2" />
<circle cx="0.0" cy="200.0" r="4.0" stroke="#0000b2" stroke-width="4.0" fill="#0000b2" />
<circle cx="0.0" cy="140.0" r="4.0" stroke="#0000b2" stroke-width="4.0" fill="#0000b2" />
<circle cx="0.0" cy="80.0" r="4.0" stroke="#0000b2" stroke-width="4.0" fill="#0000b2" />
<circle cx="40.0" cy="240.0" r="4.0" stroke="#0000b2" stroke-width="4.0" fill="#0000b2" />
<circle cx="0.0" cy="-20.0" r="4.0" stroke="#0000b2" stroke-width="4.0" fill="#0000b2" />
<circle cx="0.0" cy="20.0" r="4.0" stroke="#0000b2" stroke-width="4.0" fill="#0000b2" />
<circle cx="40.0" cy="180.0" r="4.0" stroke="#0000b2" stroke-width="4.0" fill="#0000b2" />
<circle cx="40.0" cy="120.0" r="4.0" stroke="#0000b2" stroke-width="4.0" fill="#0000b2" />
<circle cx="40.0" cy="60.0" r="4.0" stroke="#0000b2" stroke-width="4.0" fill="#0000b2" />
</g>
<g>
<path d="M -51,-35 L -21,-35 L -21,-5 L -51,-5 Z" stroke="#000000" stroke-width="4.0" fill="none"/>
<circle cx="-36.0" cy="-20.0" r="9.0" stroke="#000000" stroke-width="4.0" fill="none" />
<text text-anchor="end" x="-65.0" y="-11.0" fill="#000000" style="font-size:24px"><tspan style="font-style:italic;">A</tspan></text>
<circle cx="-20.0" cy="-20.0" r="2.0" stroke="#b20000" stroke-width="4.0" fill="#b20000" />
</g>
<g>
<path d="M -51,25 L -21,25 L -21,55 L -51,55 Z" stroke="#000000" stroke-width="4.0" fill="none"/>
<circle cx="-36.0" cy="40.0" r="9.0" stroke="#000000" stroke-width="4.0" fill="none" />
<text text-anchor="end" x="-65.0" y="49.0" fill="#000000" style="font-size:24px"><tspan style="font-style:italic;">B</tspan></text>
<circle cx="-20.0" cy="40.0" r="2.0" stroke="#b20000" stroke-width="4.0" fill="#b20000" />
</g>
<g>
<circle cx="276.0" cy="-20.0" r="9.0" stroke="#000000" stroke-width="4.0" fill="none" />
<circle cx="276.0" cy="-20.0" r="15.0" stroke="#000000" stroke-width="4.0" fill="none" />
<text text-anchor="start" x="305.0" y="-11.0" fill="#000000" style="font-size:24px"><tspan style="font-style:italic;">And</tspan></text>
<circle cx="260.0" cy="-20.0" r="2.0" stroke="#0000b2" stroke-width="4.0" fill="#0000b2" />
</g>
<g>
<circle cx="276.0" cy="40.0" r="9.0" stroke="#000000" stroke-width="4.0" fill="none" />
<circle cx="276.0" cy="40.0" r="15.0" stroke="#000000" stroke-width="4.0" fill="none" />
<text text-anchor="start" x="305.0" y="49.0" fill="#000000" style="font-size:24px"><tspan style="font-style:italic;">Or</tspan></text>
<circle cx="260.0" cy="40.0" r="2.0" stroke="#0000b2" stroke-width="4.0" fill="#0000b2" />
</g>
<g>
<circle cx="276.0" cy="100.0" r="9.0" stroke="#000000" stroke-width="4.0" fill="none" />
<circle cx="276.0" cy="100.0" r="15.0" stroke="#000000" stroke-width="4.0" fill="none" />
<text text-anchor="start" x="305.0" y="109.0" fill="#000000" style="font-size:24px"><tspan style="font-style:italic;">Nand</tspan></text>
<circle cx="260.0" cy="100.0" r="2.0" stroke="#0000b2" stroke-width="4.0" fill="#0000b2" />
</g>
<g>
<circle cx="276.0" cy="160.0" r="9.0" stroke="#000000" stroke-width="4.0" fill="none" />
<circle cx="276.0" cy="160.0" r="15.0" stroke="#000000" stroke-width="4.0" fill="none" />
<text text-anchor="start" x="305.0" y="169.0" fill="#000000" style="font-size:24px"><tspan style="font-style:italic;">Nor</tspan></text>
<circle cx="260.0" cy="160.0" r="2.0" stroke="#0000b2" stroke-width="4.0" fill="#0000b2" />
</g>
<g>
<circle cx="276.0" cy="220.0" r="9.0" stroke="#000000" stroke-width="4.0" fill="none" />
<circle cx="276.0" cy="220.0" r="15.0" stroke="#000000" stroke-width="4.0" fill="none" />
<text text-anchor="start" x="305.0" y="229.0" fill="#000000" style="font-size:24px"><tspan style="font-style:italic;">Xor</tspan></text>
<circle cx="260.0" cy="220.0" r="2.0" stroke="#0000b2" stroke-width="4.0" fill="#0000b2" />
</g>
<g>
<circle cx="276.0" cy="280.0" r="9.0" stroke="#000000" stroke-width="4.0" fill="none" />
<circle cx="276.0" cy="280.0" r="15.0" stroke="#000000" stroke-width="4.0" fill="none" />
<text text-anchor="start" x="305.0" y="289.0" fill="#000000" style="font-size:24px"><tspan style="font-style:italic;">Xnor</tspan></text>
<circle cx="260.0" cy="280.0" r="2.0" stroke="#0000b2" stroke-width="4.0" fill="#0000b2" />
</g>
<g>
<path d="M 210,10 L 161,10 L 161,-50 L 210,-50 C 220,-50 240,-40 239,-20 C 239,0 220,10 210,10 Z" stroke="#000000" stroke-width="4.0" fill="none"/>
<circle cx="160.0" cy="-40.0" r="2.0" stroke="#0000b2" stroke-width="4.0" fill="#0000b2" />
<circle cx="160.0" cy="0.0" r="2.0" stroke="#0000b2" stroke-width="4.0" fill="#0000b2" />
<circle cx="240.0" cy="-20.0" r="2.0" stroke="#b20000" stroke-width="4.0" fill="#b20000" />
</g>
<g>
<path d="M 190,70 L 160,70 C 170,54 170,26 160,10 L 180,10 C 210,10 230,20 240,40 C 230,60 210,70 190,70 Z" stroke="#000000" stroke-width="4.0" fill="none"/>
<circle cx="160.0" cy="20.0" r="2.0" stroke="#0000b2" stroke-width="4.0" fill="#0000b2" />
<circle cx="160.0" cy="60.0" r="2.0" stroke="#0000b2" stroke-width="4.0" fill="#0000b2" />
<circle cx="240.0" cy="40.0" r="2.0" stroke="#b20000" stroke-width="4.0" fill="#b20000" />
</g>
<g>
<path d="M 190,130 L 141,130 L 141,70 L 190,70 C 200,70 220,80 219,100 C 219,120 200,130 190,130 Z" stroke="#000000" stroke-width="4.0" fill="none"/>
<circle cx="230.0" cy="100.0" r="9.0" stroke="#000000" stroke-width="4.0" fill="none" />
<circle cx="140.0" cy="80.0" r="2.0" stroke="#0000b2" stroke-width="4.0" fill="#0000b2" />
<circle cx="140.0" cy="120.0" r="2.0" stroke="#0000b2" stroke-width="4.0" fill="#0000b2" />
<circle cx="240.0" cy="100.0" r="2.0" stroke="#b20000" stroke-width="4.0" fill="#b20000" />
</g>
<g>
<path d="M 170,190 L 140,190 C 150,174 150,146 140,130 L 160,130 C 190,130 210,140 220,160 C 210,180 190,190 170,190 Z" stroke="#000000" stroke-width="4.0" fill="none"/>
<circle cx="230.0" cy="160.0" r="9.0" stroke="#000000" stroke-width="4.0" fill="none" />
<circle cx="140.0" cy="140.0" r="2.0" stroke="#0000b2" stroke-width="4.0" fill="#0000b2" />
<circle cx="140.0" cy="180.0" r="2.0" stroke="#0000b2" stroke-width="4.0" fill="#0000b2" />
<circle cx="240.0" cy="160.0" r="2.0" stroke="#b20000" stroke-width="4.0" fill="#b20000" />
</g>
<g>
<path d="M 190,250 L 170,250 C 180,234 180,206 170,190 L 190,190 C 210,190 230,200 240,220 C 230,240 210,250 190,250 Z" stroke="#000000" stroke-width="4.0" fill="none"/>
<path d="M 160,250 C 170,240 170,200 160,190" stroke="#000000" stroke-width="4.0" fill="none"/>
<circle cx="160.0" cy="200.0" r="2.0" stroke="#0000b2" stroke-width="4.0" fill="#0000b2" />
<circle cx="160.0" cy="240.0" r="2.0" stroke="#0000b2" stroke-width="4.0" fill="#0000b2" />
<circle cx="240.0" cy="220.0" r="2.0" stroke="#b20000" stroke-width="4.0" fill="#b20000" />
</g>
<g>
<path d="M 170,310 L 150,310 C 160,294 160,266 150,250 L 170,250 C 190,250 210,260 220,280 C 210,300 190,310 170,310 Z" stroke="#000000" stroke-width="4.0" fill="none"/>
<path d="M 140,310 C 150,300 150,260 140,250" stroke="#000000" stroke-width="4.0" fill="none"/>
<circle cx="230.0" cy="280.0" r="9.0" stroke="#000000" stroke-width="4.0" fill="none" />
<circle cx="140.0" cy="260.0" r="2.0" stroke="#0000b2" stroke-width="4.0" fill="#0000b2" />
<circle cx="140.0" cy="300.0" r="2.0" stroke="#0000b2" stroke-width="4.0" fill="#0000b2" />
<circle cx="240.0" cy="280.0" r="2.0" stroke="#b20000" stroke-width="4.0" fill="#b20000" />
</g>
</g>
</svg>