<?xml version="1.0" encoding="UTF-8" standalone="no"?>
<!-- Created with Digital by H.Neemann -->
<!-- created: Mon Sep 25 15:18:26 ICT 2023 -->

<svg
   xmlns:svg="http://www.w3.org/2000/svg"
   xmlns="http://www.w3.org/2000/svg"
   width="115.95mm"
   height="338.85mm"
   viewBox="215 83 773 2259">
<g stroke-linecap="square">
<path d="M 340,140 L 340,640 L 600,640" stroke="#0000b2" stroke-width="4.0" fill="none"/>
<path d="M 440,1440 L 440,1540 L 600,1540 L 604,1540" stroke="#0000b2" stroke-width="4.0" fill="none"/>
<path d="M 320,440 L 320,520 L 600,520" stroke="#0000b2" stroke-width="4.0" fill="none"/>
<path d="M 440,820 L 440,1160 L 600,1160" stroke="#0000b2" stroke-width="4.0" fill="none"/>
<path d="M 400,1220 L 400,1420 L 600,1420 L 604,1420" stroke="#0000b2" stroke-width="4.0" fill="none"/>
<path d="M 520,320 L 520,400 L 600,400" stroke="#0000b2" stroke-width="4.0" fill="none"/>
<path d="M 680,660 L 700,660 L 700,720 L 720,720 L 724,720" stroke="#0000b2" stroke-width="4.0" fill="none"/>
<path d="M 400,200 L 400,660 L 600,660" stroke="#0000b2" stroke-width="4.0" fill="none"/>
<path d="M 280,280 L 500,280 L 520,280" stroke="#0000b2" stroke-width="4.0" fill="none"/>
<path d="M 680,540 L 700,540 L 700,480 L 720,480 L 724,480" stroke="#0000b2" stroke-width="4.0" fill="none"/>
<path d="M 380,1020 L 380,540 L 600,540" stroke="#0000b2" stroke-width="4.0" fill="none"/>
<path d="M 280,160 L 380,160 L 400,160" stroke="#0000b2" stroke-width="4.0" fill="none"/>
<path d="M 400,660 L 400,800 L 600,800" stroke="#0000b2" stroke-width="4.0" fill="none"/>
<path d="M 680,1440 L 700,1440 L 700,1500 L 720,1500" stroke="#0000b2" stroke-width="4.0" fill="none"/>
<path d="M 680,1700 L 700,1700 L 700,1760 L 720,1760" stroke="#0000b2" stroke-width="4.0" fill="none"/>
<path d="M 380,1120 L 380,1700 L 600,1700 L 607,1700" stroke="#0000b2" stroke-width="4.0" fill="none"/>
<path d="M 500,280 L 500,680 L 600,680" stroke="#0000b2" stroke-width="4.0" fill="none"/>
<path d="M 380,1840 L 380,1960 L 600,1960 L 604,1960" stroke="#0000b2" stroke-width="4.0" fill="none"/>
<path d="M 680,940 L 720,940 L 720,1060" stroke="#0000b2" stroke-width="4.0" fill="none"/>
<path d="M 520,2120 L 520,2220 L 600,2220" stroke="#0000b2" stroke-width="4.0" fill="none"/>
<path d="M 520,400 L 520,560 L 600,560" stroke="#0000b2" stroke-width="4.0" fill="none"/>
<path d="M 320,1100 L 320,1200 L 600,1200" stroke="#0000b2" stroke-width="4.0" fill="none"/>
<path d="M 380,1700 L 380,1840 L 600,1840 L 604,1840" stroke="#0000b2" stroke-width="4.0" fill="none"/>
<path d="M 680,820 L 700,820 L 700,760 L 720,760 L 724,760" stroke="#0000b2" stroke-width="4.0" fill="none"/>
<path d="M 440,760 L 440,820 L 600,820" stroke="#0000b2" stroke-width="4.0" fill="none"/>
<path d="M 680,2080 L 680,2100 L 720,2100" stroke="#0000b2" stroke-width="4.0" fill="none"/>
<path d="M 320,100 L 320,440 L 600,440" stroke="#0000b2" stroke-width="4.0" fill="none"/>
<path d="M 680,1040 L 680,1080 L 720,1080 L 724,1080" stroke="#0000b2" stroke-width="4.0" fill="none"/>
<path d="M 520,1880 L 520,1720 L 600,1720 L 604,1720" stroke="#0000b2" stroke-width="4.0" fill="none"/>
<path d="M 680,1980 L 700,1980 L 700,2080 L 720,2080" stroke="#0000b2" stroke-width="4.0" fill="none"/>
<path d="M 680,1600 L 700,1600 L 700,1540 L 720,1540" stroke="#0000b2" stroke-width="4.0" fill="none"/>
<path d="M 400,2060 L 400,1600 L 600,1600 L 607,1600" stroke="#0000b2" stroke-width="4.0" fill="none"/>
<path d="M 340,2140 L 340,2240 L 600,2240" stroke="#0000b2" stroke-width="4.0" fill="none"/>
<path d="M 680,1860 L 700,1860 L 700,1800 L 720,1800" stroke="#0000b2" stroke-width="4.0" fill="none"/>
<path d="M 500,680 L 500,840 L 600,840" stroke="#0000b2" stroke-width="4.0" fill="none"/>
<path d="M 800,2120 L 820,2120" stroke="#0000b2" stroke-width="4.0" fill="none"/>
<path d="M 860,2120 L 880,2120" stroke="#0000b2" stroke-width="4.0" fill="none"/>
<path d="M 680,460 L 720,460 L 727,460" stroke="#0000b2" stroke-width="4.0" fill="none"/>
<path d="M 800,460 L 840,460" stroke="#0000b2" stroke-width="4.0" fill="none"/>
<path d="M 800,1100 L 840,1100" stroke="#0000b2" stroke-width="4.0" fill="none"/>
<path d="M 320,520 L 320,1100 L 600,1100" stroke="#0000b2" stroke-width="4.0" fill="none"/>
<path d="M 340,640 L 340,720 L 600,720" stroke="#0000b2" stroke-width="4.0" fill="none"/>
<path d="M 380,2340 L 380,2260 L 600,2260 L 604,2260" stroke="#0000b2" stroke-width="4.0" fill="none"/>
<path d="M 680,1240 L 720,1240 L 720,1140" stroke="#0000b2" stroke-width="4.0" fill="none"/>
<path d="M 280,220 L 440,220 L 460,220" stroke="#0000b2" stroke-width="4.0" fill="none"/>
<path d="M 680,2180 L 680,2140 L 720,2140" stroke="#0000b2" stroke-width="4.0" fill="none"/>
<path d="M 340,1580 L 340,2140 L 600,2140" stroke="#0000b2" stroke-width="4.0" fill="none"/>
<path d="M 460,380 L 460,480 L 600,480" stroke="#0000b2" stroke-width="4.0" fill="none"/>
<path d="M 680,1140 L 680,1120 L 720,1120 L 724,1120" stroke="#0000b2" stroke-width="4.0" fill="none"/>
<path d="M 280,100 L 320,100 L 340,100" stroke="#0000b2" stroke-width="4.0" fill="none"/>
<path d="M 680,740 L 720,740 L 727,740" stroke="#0000b2" stroke-width="4.0" fill="none"/>
<path d="M 800,740 L 840,740" stroke="#0000b2" stroke-width="4.0" fill="none"/>
<path d="M 380,160 L 380,360 L 600,360" stroke="#0000b2" stroke-width="4.0" fill="none"/>
<path d="M 680,2280 L 700,2280 L 700,2160 L 720,2160" stroke="#0000b2" stroke-width="4.0" fill="none"/>
<path d="M 680,1520 L 720,1520" stroke="#0000b2" stroke-width="4.0" fill="none"/>
<path d="M 800,1520 L 820,1520" stroke="#0000b2" stroke-width="4.0" fill="none"/>
<path d="M 860,1520 L 880,1520" stroke="#0000b2" stroke-width="4.0" fill="none"/>
<path d="M 680,1780 L 720,1780" stroke="#0000b2" stroke-width="4.0" fill="none"/>
<path d="M 800,1780 L 820,1780" stroke="#0000b2" stroke-width="4.0" fill="none"/>
<path d="M 860,1780 L 880,1780" stroke="#0000b2" stroke-width="4.0" fill="none"/>
<path d="M 440,220 L 440,760 L 600,760" stroke="#0000b2" stroke-width="4.0" fill="none"/>
<path d="M 680,380 L 700,380 L 700,440 L 720,440 L 724,440" stroke="#0000b2" stroke-width="4.0" fill="none"/>
<path d="M 460,260 L 460,380 L 600,380" stroke="#0000b2" stroke-width="4.0" fill="none"/>
<path d="M 600,1940 L 320,1940 L 320,2040 L 600,2040" stroke="#0000b2" stroke-width="4.0" fill="none"/>
<path d="M 320,2040 L 320,2340" stroke="#0000b2" stroke-width="4.0" fill="none"/>
<path d="M 604,1680 L 600,1680 L 320,1680 L 320,1760 L 600,1760 L 604,1760" stroke="#0000b2" stroke-width="4.0" fill="none"/>
<path d="M 320,1200 L 320,1680" stroke="#0000b2" stroke-width="4.0" fill="none"/>
<path d="M 320,1760 L 320,1940" stroke="#0000b2" stroke-width="4.0" fill="none"/>
<path d="M 600,920 L 400,920 L 400,1220 L 600,1220" stroke="#0000b2" stroke-width="4.0" fill="none"/>
<path d="M 604,2060 L 600,2060 L 400,2060 L 400,2160 L 600,2160 L 604,2160" stroke="#0000b2" stroke-width="4.0" fill="none"/>
<path d="M 400,2160 L 400,2340" stroke="#0000b2" stroke-width="4.0" fill="none"/>
<path d="M 400,800 L 400,920" stroke="#0000b2" stroke-width="4.0" fill="none"/>
<path d="M 400,1420 L 400,1600" stroke="#0000b2" stroke-width="4.0" fill="none"/>
<path d="M 600,900 L 340,900 L 340,1000 L 600,1000" stroke="#0000b2" stroke-width="4.0" fill="none"/>
<path d="M 604,1580 L 600,1580 L 340,1580 L 340,1500 L 600,1500 L 604,1500" stroke="#0000b2" stroke-width="4.0" fill="none"/>
<path d="M 340,1000 L 340,1500" stroke="#0000b2" stroke-width="4.0" fill="none"/>
<path d="M 340,2240 L 340,2340" stroke="#0000b2" stroke-width="4.0" fill="none"/>
<path d="M 340,720 L 340,900" stroke="#0000b2" stroke-width="4.0" fill="none"/>
<path d="M 604,1460 L 600,1460 L 500,1460 L 500,1620 L 600,1620 L 604,1620" stroke="#0000b2" stroke-width="4.0" fill="none"/>
<path d="M 600,2320 L 500,2320 L 500,2020 L 600,2020" stroke="#0000b2" stroke-width="4.0" fill="none"/>
<path d="M 600,1180 L 500,1180 L 500,1080 L 600,1080" stroke="#0000b2" stroke-width="4.0" fill="none"/>
<path d="M 500,1620 L 500,2020" stroke="#0000b2" stroke-width="4.0" fill="none"/>
<path d="M 500,1180 L 500,1460" stroke="#0000b2" stroke-width="4.0" fill="none"/>
<path d="M 500,2320 L 500,2340" stroke="#0000b2" stroke-width="4.0" fill="none"/>
<path d="M 500,840 L 500,1080" stroke="#0000b2" stroke-width="4.0" fill="none"/>
<path d="M 607,1440 L 600,1440 L 440,1440 L 440,1260 L 600,1260" stroke="#0000b2" stroke-width="4.0" fill="none"/>
<path d="M 604,2100 L 600,2100 L 440,2100 L 440,2000 L 600,2000 L 604,2000" stroke="#0000b2" stroke-width="4.0" fill="none"/>
<path d="M 440,1540 L 440,2000" stroke="#0000b2" stroke-width="4.0" fill="none"/>
<path d="M 440,2100 L 440,2340" stroke="#0000b2" stroke-width="4.0" fill="none"/>
<path d="M 440,1160 L 440,1260" stroke="#0000b2" stroke-width="4.0" fill="none"/>
<path d="M 600,2120 L 520,2120 L 520,1880 L 600,1880 L 604,1880" stroke="#0000b2" stroke-width="4.0" fill="none"/>
<path d="M 600,1280 L 520,1280 L 520,980 L 600,980" stroke="#0000b2" stroke-width="4.0" fill="none"/>
<path d="M 520,560 L 520,980" stroke="#0000b2" stroke-width="4.0" fill="none"/>
<path d="M 520,2220 L 520,2340" stroke="#0000b2" stroke-width="4.0" fill="none"/>
<path d="M 520,1280 L 520,1720" stroke="#0000b2" stroke-width="4.0" fill="none"/>
<path d="M 600,1120 L 380,1120 L 380,1020 L 600,1020" stroke="#0000b2" stroke-width="4.0" fill="none"/>
<path d="M 380,360 L 380,540" stroke="#0000b2" stroke-width="4.0" fill="none"/>
<path d="M 380,1960 L 380,2260" stroke="#0000b2" stroke-width="4.0" fill="none"/>
<path d="M 604,2200 L 600,2200 L 460,2200 L 460,2300 L 600,2300 L 604,2300" stroke="#0000b2" stroke-width="4.0" fill="none"/>
<path d="M 460,2300 L 460,2340" stroke="#0000b2" stroke-width="4.0" fill="none"/>
<path d="M 604,1800 L 600,1800 L 460,1800 L 460,1860 L 600,1860 L 607,1860" stroke="#0000b2" stroke-width="4.0" fill="none"/>
<path d="M 460,1860 L 460,2200" stroke="#0000b2" stroke-width="4.0" fill="none"/>
<path d="M 600,1060 L 460,1060 L 460,960 L 600,960" stroke="#0000b2" stroke-width="4.0" fill="none"/>
<path d="M 460,480 L 460,960" stroke="#0000b2" stroke-width="4.0" fill="none"/>
<path d="M 460,1060 L 460,1800" stroke="#0000b2" stroke-width="4.0" fill="none"/>
<path d="M 601,900 L 601,909" stroke="#000000" stroke-width="4.0" fill="none"/>
<path d="M 601,980 L 601,971" stroke="#000000" stroke-width="4.0" fill="none"/>
<path d="M 601,1000 L 601,1009" stroke="#000000" stroke-width="4.0" fill="none"/>
<path d="M 601,1080 L 601,1071" stroke="#000000" stroke-width="4.0" fill="none"/>
<path d="M 601,1200 L 601,1209" stroke="#000000" stroke-width="4.0" fill="none"/>
<path d="M 601,1280 L 601,1271" stroke="#000000" stroke-width="4.0" fill="none"/>
<path d="M 721,1060 L 721,1069" stroke="#000000" stroke-width="4.0" fill="none"/>
<path d="M 721,1140 L 721,1131" stroke="#000000" stroke-width="4.0" fill="none"/>
<path d="M 601,1100 L 601,1109" stroke="#000000" stroke-width="4.0" fill="none"/>
<path d="M 601,1180 L 601,1171" stroke="#000000" stroke-width="4.0" fill="none"/>
<path d="M 601,1940 L 601,1949" stroke="#000000" stroke-width="4.0" fill="none"/>
<path d="M 601,2020 L 601,2011" stroke="#000000" stroke-width="4.0" fill="none"/>
<path d="M 601,2040 L 601,2049" stroke="#000000" stroke-width="4.0" fill="none"/>
<path d="M 601,2120 L 601,2111" stroke="#000000" stroke-width="4.0" fill="none"/>
<path d="M 601,2140 L 601,2149" stroke="#000000" stroke-width="4.0" fill="none"/>
<path d="M 601,2220 L 601,2211" stroke="#000000" stroke-width="4.0" fill="none"/>
<path d="M 601,2240 L 601,2249" stroke="#000000" stroke-width="4.0" fill="none"/>
<path d="M 601,2320 L 601,2311" stroke="#000000" stroke-width="4.0" fill="none"/>
<path d="M 721,2080 L 721,2089" stroke="#000000" stroke-width="4.0" fill="none"/>
<path d="M 721,2160 L 721,2151" stroke="#000000" stroke-width="4.0" fill="none"/>
<g>
<circle cx="340.0" cy="640.0" r="4.0" stroke="#0000b2" stroke-width="4.0" fill="#0000b2" />
<circle cx="520.0" cy="1280.0" r="4.0" stroke="#0000b2" stroke-width="4.0" fill="#0000b2" />
<circle cx="340.0" cy="900.0" r="4.0" stroke="#0000b2" stroke-width="4.0" fill="#0000b2" />
<circle cx="440.0" cy="1540.0" r="4.0" stroke="#0000b2" stroke-width="4.0" fill="#0000b2" />
<circle cx="320.0" cy="520.0" r="4.0" stroke="#0000b2" stroke-width="4.0" fill="#0000b2" />
<circle cx="440.0" cy="1160.0" r="4.0" stroke="#0000b2" stroke-width="4.0" fill="#0000b2" />
<circle cx="460.0" cy="1800.0" r="4.0" stroke="#0000b2" stroke-width="4.0" fill="#0000b2" />
<circle cx="400.0" cy="1420.0" r="4.0" stroke="#0000b2" stroke-width="4.0" fill="#0000b2" />
<circle cx="400.0" cy="2060.0" r="4.0" stroke="#0000b2" stroke-width="4.0" fill="#0000b2" />
<circle cx="520.0" cy="400.0" r="4.0" stroke="#0000b2" stroke-width="4.0" fill="#0000b2" />
<circle cx="320.0" cy="1680.0" r="4.0" stroke="#0000b2" stroke-width="4.0" fill="#0000b2" />
<circle cx="500.0" cy="2320.0" r="4.0" stroke="#0000b2" stroke-width="4.0" fill="#0000b2" />
<circle cx="400.0" cy="660.0" r="4.0" stroke="#0000b2" stroke-width="4.0" fill="#0000b2" />
<circle cx="320.0" cy="1940.0" r="4.0" stroke="#0000b2" stroke-width="4.0" fill="#0000b2" />
<circle cx="500.0" cy="280.0" r="4.0" stroke="#0000b2" stroke-width="4.0" fill="#0000b2" />
<circle cx="400.0" cy="920.0" r="4.0" stroke="#0000b2" stroke-width="4.0" fill="#0000b2" />
<circle cx="460.0" cy="2200.0" r="4.0" stroke="#0000b2" stroke-width="4.0" fill="#0000b2" />
<circle cx="380.0" cy="540.0" r="4.0" stroke="#0000b2" stroke-width="4.0" fill="#0000b2" />
<circle cx="500.0" cy="1180.0" r="4.0" stroke="#0000b2" stroke-width="4.0" fill="#0000b2" />
<circle cx="380.0" cy="160.0" r="4.0" stroke="#0000b2" stroke-width="4.0" fill="#0000b2" />
<circle cx="400.0" cy="800.0" r="4.0" stroke="#0000b2" stroke-width="4.0" fill="#0000b2" />
<circle cx="440.0" cy="1440.0" r="4.0" stroke="#0000b2" stroke-width="4.0" fill="#0000b2" />
<circle cx="460.0" cy="1060.0" r="4.0" stroke="#0000b2" stroke-width="4.0" fill="#0000b2" />
<circle cx="380.0" cy="1700.0" r="4.0" stroke="#0000b2" stroke-width="4.0" fill="#0000b2" />
<circle cx="500.0" cy="680.0" r="4.0" stroke="#0000b2" stroke-width="4.0" fill="#0000b2" />
<circle cx="380.0" cy="1960.0" r="4.0" stroke="#0000b2" stroke-width="4.0" fill="#0000b2" />
<circle cx="340.0" cy="1580.0" r="4.0" stroke="#0000b2" stroke-width="4.0" fill="#0000b2" />
<circle cx="520.0" cy="2220.0" r="4.0" stroke="#0000b2" stroke-width="4.0" fill="#0000b2" />
<circle cx="520.0" cy="560.0" r="4.0" stroke="#0000b2" stroke-width="4.0" fill="#0000b2" />
<circle cx="320.0" cy="1200.0" r="4.0" stroke="#0000b2" stroke-width="4.0" fill="#0000b2" />
<circle cx="380.0" cy="1840.0" r="4.0" stroke="#0000b2" stroke-width="4.0" fill="#0000b2" />
<circle cx="440.0" cy="820.0" r="4.0" stroke="#0000b2" stroke-width="4.0" fill="#0000b2" />
<circle cx="500.0" cy="1460.0" r="4.0" stroke="#0000b2" stroke-width="4.0" fill="#0000b2" />
<circle cx="440.0" cy="2100.0" r="4.0" stroke="#0000b2" stroke-width="4.0" fill="#0000b2" />
<circle cx="320.0" cy="440.0" r="4.0" stroke="#0000b2" stroke-width="4.0" fill="#0000b2" />
<circle cx="500.0" cy="1080.0" r="4.0" stroke="#0000b2" stroke-width="4.0" fill="#0000b2" />
<circle cx="520.0" cy="1720.0" r="4.0" stroke="#0000b2" stroke-width="4.0" fill="#0000b2" />
<circle cx="460.0" cy="960.0" r="4.0" stroke="#0000b2" stroke-width="4.0" fill="#0000b2" />
<circle cx="400.0" cy="1600.0" r="4.0" stroke="#0000b2" stroke-width="4.0" fill="#0000b2" />
<circle cx="340.0" cy="2240.0" r="4.0" stroke="#0000b2" stroke-width="4.0" fill="#0000b2" />
<circle cx="400.0" cy="1220.0" r="4.0" stroke="#0000b2" stroke-width="4.0" fill="#0000b2" />
<circle cx="460.0" cy="1860.0" r="4.0" stroke="#0000b2" stroke-width="4.0" fill="#0000b2" />
<circle cx="500.0" cy="840.0" r="4.0" stroke="#0000b2" stroke-width="4.0" fill="#0000b2" />
<circle cx="520.0" cy="2120.0" r="4.0" stroke="#0000b2" stroke-width="4.0" fill="#0000b2" />
<circle cx="320.0" cy="1100.0" r="4.0" stroke="#0000b2" stroke-width="4.0" fill="#0000b2" />
<circle cx="340.0" cy="720.0" r="4.0" stroke="#0000b2" stroke-width="4.0" fill="#0000b2" />
<circle cx="440.0" cy="2000.0" r="4.0" stroke="#0000b2" stroke-width="4.0" fill="#0000b2" />
<circle cx="520.0" cy="980.0" r="4.0" stroke="#0000b2" stroke-width="4.0" fill="#0000b2" />
<circle cx="500.0" cy="1620.0" r="4.0" stroke="#0000b2" stroke-width="4.0" fill="#0000b2" />
<circle cx="380.0" cy="2260.0" r="4.0" stroke="#0000b2" stroke-width="4.0" fill="#0000b2" />
<circle cx="520.0" cy="1880.0" r="4.0" stroke="#0000b2" stroke-width="4.0" fill="#0000b2" />
<circle cx="440.0" cy="220.0" r="4.0" stroke="#0000b2" stroke-width="4.0" fill="#0000b2" />
<circle cx="340.0" cy="1500.0" r="4.0" stroke="#0000b2" stroke-width="4.0" fill="#0000b2" />
<circle cx="340.0" cy="2140.0" r="4.0" stroke="#0000b2" stroke-width="4.0" fill="#0000b2" />
<circle cx="460.0" cy="480.0" r="4.0" stroke="#0000b2" stroke-width="4.0" fill="#0000b2" />
<circle cx="380.0" cy="1120.0" r="4.0" stroke="#0000b2" stroke-width="4.0" fill="#0000b2" />
<circle cx="320.0" cy="1760.0" r="4.0" stroke="#0000b2" stroke-width="4.0" fill="#0000b2" />
<circle cx="320.0" cy="100.0" r="4.0" stroke="#0000b2" stroke-width="4.0" fill="#0000b2" />
<circle cx="500.0" cy="2020.0" r="4.0" stroke="#0000b2" stroke-width="4.0" fill="#0000b2" />
<circle cx="380.0" cy="360.0" r="4.0" stroke="#0000b2" stroke-width="4.0" fill="#0000b2" />
<circle cx="340.0" cy="1000.0" r="4.0" stroke="#0000b2" stroke-width="4.0" fill="#0000b2" />
<circle cx="440.0" cy="1260.0" r="4.0" stroke="#0000b2" stroke-width="4.0" fill="#0000b2" />
<circle cx="400.0" cy="2160.0" r="4.0" stroke="#0000b2" stroke-width="4.0" fill="#0000b2" />
<circle cx="440.0" cy="760.0" r="4.0" stroke="#0000b2" stroke-width="4.0" fill="#0000b2" />
<circle cx="320.0" cy="2040.0" r="4.0" stroke="#0000b2" stroke-width="4.0" fill="#0000b2" />
<circle cx="460.0" cy="380.0" r="4.0" stroke="#0000b2" stroke-width="4.0" fill="#0000b2" />
<circle cx="380.0" cy="1020.0" r="4.0" stroke="#0000b2" stroke-width="4.0" fill="#0000b2" />
<circle cx="460.0" cy="2300.0" r="4.0" stroke="#0000b2" stroke-width="4.0" fill="#0000b2" />
</g>
<g>
<path d="M 249,85 L 279,85 L 279,115 L 249,115 Z" stroke="#000000" stroke-width="4.0" fill="none"/>
<circle cx="264.0" cy="100.0" r="9.0" stroke="#000000" stroke-width="4.0" fill="none" />
<text text-anchor="end" x="235.0" y="109.0" fill="#000000" style="font-size:24px"><tspan style="font-style:italic;">A</tspan></text>
<circle cx="280.0" cy="100.0" r="2.0" stroke="#b20000" stroke-width="4.0" fill="#b20000" />
</g>
<g>
<path d="M 249,145 L 279,145 L 279,175 L 249,175 Z" stroke="#000000" stroke-width="4.0" fill="none"/>
<circle cx="264.0" cy="160.0" r="9.0" stroke="#000000" stroke-width="4.0" fill="none" />
<text text-anchor="end" x="235.0" y="169.0" fill="#000000" style="font-size:24px"><tspan style="font-style:italic;">B</tspan></text>
<circle cx="280.0" cy="160.0" r="2.0" stroke="#b20000" stroke-width="4.0" fill="#b20000" />
</g>
<g>
<path d="M 249,205 L 279,205 L 279,235 L 249,235 Z" stroke="#000000" stroke-width="4.0" fill="none"/>
<circle cx="264.0" cy="220.0" r="9.0" stroke="#000000" stroke-width="4.0" fill="none" />
<text text-anchor="end" x="235.0" y="229.0" fill="#000000" style="font-size:24px"><tspan style="font-style:italic;">C</tspan></text>
<circle cx="280.0" cy="220.0" r="2.0" stroke="#b20000" stroke-width="4.0" fill="#b20000" />
</g>
<g>
<circle cx="856.0" cy="460.0" r="9.0" stroke="#000000" stroke-width="4.0" fill="none" />
<circle cx="856.0" cy="460.0" r="15.0" stroke="#000000" stroke-width="4.0" fill="none" />
<text text-anchor="start" x="885.0" y="469.0" fill="#000000" style="font-size:24px"><tspan style="font-style:italic;">Z1 &gt;</tspan></text>
<circle cx="840.0" cy="460.0" r="2.0" stroke="#0000b2" stroke-width="4.0" fill="#0000b2" />
</g>
<g>
<circle cx="856.0" cy="740.0" r="9.0" stroke="#000000" stroke-width="4.0" fill="none" />
<circle cx="856.0" cy="740.0" r="15.0" stroke="#000000" stroke-width="4.0" fill="none" />
<text text-anchor="start" x="885.0" y="749.0" fill="#000000" style="font-size:24px"><tspan style="font-style:italic;">Z2 &lt;</tspan></text>
<circle cx="840.0" cy="740.0" r="2.0" stroke="#0000b2" stroke-width="4.0" fill="#0000b2" />
</g>
<g>
<path d="M 249,265 L 279,265 L 279,295 L 249,295 Z" stroke="#000000" stroke-width="4.0" fill="none"/>
<circle cx="264.0" cy="280.0" r="9.0" stroke="#000000" stroke-width="4.0" fill="none" />
<text text-anchor="end" x="235.0" y="289.0" fill="#000000" style="font-size:24px"><tspan style="font-style:italic;">D</tspan></text>
<circle cx="280.0" cy="280.0" r="2.0" stroke="#b20000" stroke-width="4.0" fill="#b20000" />
</g>
<g>
<circle cx="856.0" cy="1100.0" r="9.0" stroke="#000000" stroke-width="4.0" fill="none" />
<circle cx="856.0" cy="1100.0" r="15.0" stroke="#000000" stroke-width="4.0" fill="none" />
<text text-anchor="start" x="885.0" y="1109.0" fill="#000000" style="font-size:24px"><tspan style="font-style:italic;">Z3 =</tspan></text>
<circle cx="840.0" cy="1100.0" r="2.0" stroke="#0000b2" stroke-width="4.0" fill="#0000b2" />
</g>
<g>
<path d="M 352,101 L 340,119 L 328,101 Z" stroke="#000000" stroke-width="4.0" fill="none"/>
<circle cx="340.0" cy="130.0" r="9.0" stroke="#000000" stroke-width="4.0" fill="none" />
<circle cx="340.0" cy="100.0" r="2.0" stroke="#0000b2" stroke-width="4.0" fill="#0000b2" />
<circle cx="340.0" cy="140.0" r="2.0" stroke="#b20000" stroke-width="4.0" fill="#b20000" />
</g>
<g>
<path d="M 412,161 L 400,179 L 388,161 Z" stroke="#000000" stroke-width="4.0" fill="none"/>
<circle cx="400.0" cy="190.0" r="9.0" stroke="#000000" stroke-width="4.0" fill="none" />
<circle cx="400.0" cy="160.0" r="2.0" stroke="#0000b2" stroke-width="4.0" fill="#0000b2" />
<circle cx="400.0" cy="200.0" r="2.0" stroke="#b20000" stroke-width="4.0" fill="#b20000" />
</g>
<g>
<path d="M 472,221 L 460,239 L 448,221 Z" stroke="#000000" stroke-width="4.0" fill="none"/>
<circle cx="460.0" cy="250.0" r="9.0" stroke="#000000" stroke-width="4.0" fill="none" />
<circle cx="460.0" cy="220.0" r="2.0" stroke="#0000b2" stroke-width="4.0" fill="#0000b2" />
<circle cx="460.0" cy="260.0" r="2.0" stroke="#b20000" stroke-width="4.0" fill="#b20000" />
</g>
<g>
<path d="M 532,281 L 520,299 L 508,281 Z" stroke="#000000" stroke-width="4.0" fill="none"/>
<circle cx="520.0" cy="310.0" r="9.0" stroke="#000000" stroke-width="4.0" fill="none" />
<circle cx="520.0" cy="280.0" r="2.0" stroke="#0000b2" stroke-width="4.0" fill="#0000b2" />
<circle cx="520.0" cy="320.0" r="2.0" stroke="#b20000" stroke-width="4.0" fill="#b20000" />
</g>
<g>
<path d="M 650,410 L 601,410 L 601,350 L 650,350 C 660,350 680,360 679,380 C 679,400 660,410 650,410 Z" stroke="#000000" stroke-width="4.0" fill="none"/>
<circle cx="600.0" cy="360.0" r="2.0" stroke="#0000b2" stroke-width="4.0" fill="#0000b2" />
<circle cx="600.0" cy="380.0" r="2.0" stroke="#0000b2" stroke-width="4.0" fill="#0000b2" />
<circle cx="600.0" cy="400.0" r="2.0" stroke="#0000b2" stroke-width="4.0" fill="#0000b2" />
<circle cx="680.0" cy="380.0" r="2.0" stroke="#b20000" stroke-width="4.0" fill="#b20000" />
</g>
<g>
<path d="M 650,490 L 601,490 L 601,430 L 650,430 C 660,430 680,440 679,460 C 679,480 660,490 650,490 Z" stroke="#000000" stroke-width="4.0" fill="none"/>
<circle cx="600.0" cy="440.0" r="2.0" stroke="#0000b2" stroke-width="4.0" fill="#0000b2" />
<circle cx="600.0" cy="480.0" r="2.0" stroke="#0000b2" stroke-width="4.0" fill="#0000b2" />
<circle cx="680.0" cy="460.0" r="2.0" stroke="#b20000" stroke-width="4.0" fill="#b20000" />
</g>
<g>
<path d="M 650,570 L 601,570 L 601,510 L 650,510 C 660,510 680,520 679,540 C 679,560 660,570 650,570 Z" stroke="#000000" stroke-width="4.0" fill="none"/>
<circle cx="600.0" cy="520.0" r="2.0" stroke="#0000b2" stroke-width="4.0" fill="#0000b2" />
<circle cx="600.0" cy="540.0" r="2.0" stroke="#0000b2" stroke-width="4.0" fill="#0000b2" />
<circle cx="600.0" cy="560.0" r="2.0" stroke="#0000b2" stroke-width="4.0" fill="#0000b2" />
<circle cx="680.0" cy="540.0" r="2.0" stroke="#b20000" stroke-width="4.0" fill="#b20000" />
</g>
<g>
<path d="M 750,490 L 720,490 C 730,474 730,446 720,430 L 740,430 C 770,430 790,440 800,460 C 790,480 770,490 750,490 Z" stroke="#000000" stroke-width="4.0" fill="none"/>
<circle cx="720.0" cy="440.0" r="2.0" stroke="#0000b2" stroke-width="4.0" fill="#0000b2" />
<circle cx="720.0" cy="460.0" r="2.0" stroke="#0000b2" stroke-width="4.0" fill="#0000b2" />
<circle cx="720.0" cy="480.0" r="2.0" stroke="#0000b2" stroke-width="4.0" fill="#0000b2" />
<circle cx="800.0" cy="460.0" r="2.0" stroke="#b20000" stroke-width="4.0" fill="#b20000" />
</g>
<g>
<path d="M 650,690 L 601,690 L 601,630 L 650,630 C 660,630 680,640 679,660 C 679,680 660,690 650,690 Z" stroke="#000000" stroke-width="4.0" fill="none"/>
<circle cx="600.0" cy="640.0" r="2.0" stroke="#0000b2" stroke-width="4.0" fill="#0000b2" />
<circle cx="600.0" cy="660.0" r="2.0" stroke="#0000b2" stroke-width="4.0" fill="#0000b2" />
<circle cx="600.0" cy="680.0" r="2.0" stroke="#0000b2" stroke-width="4.0" fill="#0000b2" />
<circle cx="680.0" cy="660.0" r="2.0" stroke="#b20000" stroke-width="4.0" fill="#b20000" />
</g>
<g>
<path d="M 650,770 L 601,770 L 601,710 L 650,710 C 660,710 680,720 679,740 C 679,760 660,770 650,770 Z" stroke="#000000" stroke-width="4.0" fill="none"/>
<circle cx="600.0" cy="720.0" r="2.0" stroke="#0000b2" stroke-width="4.0" fill="#0000b2" />
<circle cx="600.0" cy="760.0" r="2.0" stroke="#0000b2" stroke-width="4.0" fill="#0000b2" />
<circle cx="680.0" cy="740.0" r="2.0" stroke="#b20000" stroke-width="4.0" fill="#b20000" />
</g>
<g>
<path d="M 650,850 L 601,850 L 601,790 L 650,790 C 660,790 680,800 679,820 C 679,840 660,850 650,850 Z" stroke="#000000" stroke-width="4.0" fill="none"/>
<circle cx="600.0" cy="800.0" r="2.0" stroke="#0000b2" stroke-width="4.0" fill="#0000b2" />
<circle cx="600.0" cy="820.0" r="2.0" stroke="#0000b2" stroke-width="4.0" fill="#0000b2" />
<circle cx="600.0" cy="840.0" r="2.0" stroke="#0000b2" stroke-width="4.0" fill="#0000b2" />
<circle cx="680.0" cy="820.0" r="2.0" stroke="#b20000" stroke-width="4.0" fill="#b20000" />
</g>
<g>
<path d="M 750,770 L 720,770 C 730,754 730,726 720,710 L 740,710 C 770,710 790,720 800,740 C 790,760 770,770 750,770 Z" stroke="#000000" stroke-width="4.0" fill="none"/>
<circle cx="720.0" cy="720.0" r="2.0" stroke="#0000b2" stroke-width="4.0" fill="#0000b2" />
<circle cx="720.0" cy="740.0" r="2.0" stroke="#0000b2" stroke-width="4.0" fill="#0000b2" />
<circle cx="720.0" cy="760.0" r="2.0" stroke="#0000b2" stroke-width="4.0" fill="#0000b2" />
<circle cx="800.0" cy="740.0" r="2.0" stroke="#b20000" stroke-width="4.0" fill="#b20000" />
</g>
<g>
<path d="M 650,970 L 601,970 L 601,910 L 650,910 C 660,910 680,920 679,940 C 679,960 660,970 650,970 Z" stroke="#000000" stroke-width="4.0" fill="none"/>
<circle cx="600.0" cy="900.0" r="2.0" stroke="#0000b2" stroke-width="4.0" fill="#0000b2" />
<circle cx="600.0" cy="920.0" r="2.0" stroke="#0000b2" stroke-width="4.0" fill="#0000b2" />
<circle cx="600.0" cy="960.0" r="2.0" stroke="#0000b2" stroke-width="4.0" fill="#0000b2" />
<circle cx="600.0" cy="980.0" r="2.0" stroke="#0000b2" stroke-width="4.0" fill="#0000b2" />
<circle cx="680.0" cy="940.0" r="2.0" stroke="#b20000" stroke-width="4.0" fill="#b20000" />
</g>
<g>
<path d="M 650,1070 L 601,1070 L 601,1010 L 650,1010 C 660,1010 680,1020 679,1040 C 679,1060 660,1070 650,1070 Z" stroke="#000000" stroke-width="4.0" fill="none"/>
<circle cx="600.0" cy="1000.0" r="2.0" stroke="#0000b2" stroke-width="4.0" fill="#0000b2" />
<circle cx="600.0" cy="1020.0" r="2.0" stroke="#0000b2" stroke-width="4.0" fill="#0000b2" />
<circle cx="600.0" cy="1060.0" r="2.0" stroke="#0000b2" stroke-width="4.0" fill="#0000b2" />
<circle cx="600.0" cy="1080.0" r="2.0" stroke="#0000b2" stroke-width="4.0" fill="#0000b2" />
<circle cx="680.0" cy="1040.0" r="2.0" stroke="#b20000" stroke-width="4.0" fill="#b20000" />
</g>
<g>
<path d="M 650,1270 L 601,1270 L 601,1210 L 650,1210 C 660,1210 680,1220 679,1240 C 679,1260 660,1270 650,1270 Z" stroke="#000000" stroke-width="4.0" fill="none"/>
<circle cx="600.0" cy="1200.0" r="2.0" stroke="#0000b2" stroke-width="4.0" fill="#0000b2" />
<circle cx="600.0" cy="1220.0" r="2.0" stroke="#0000b2" stroke-width="4.0" fill="#0000b2" />
<circle cx="600.0" cy="1260.0" r="2.0" stroke="#0000b2" stroke-width="4.0" fill="#0000b2" />
<circle cx="600.0" cy="1280.0" r="2.0" stroke="#0000b2" stroke-width="4.0" fill="#0000b2" />
<circle cx="680.0" cy="1240.0" r="2.0" stroke="#b20000" stroke-width="4.0" fill="#b20000" />
</g>
<g>
<path d="M 750,1130 L 720,1130 C 730,1114 730,1086 720,1070 L 740,1070 C 770,1070 790,1080 800,1100 C 790,1120 770,1130 750,1130 Z" stroke="#000000" stroke-width="4.0" fill="none"/>
<circle cx="720.0" cy="1060.0" r="2.0" stroke="#0000b2" stroke-width="4.0" fill="#0000b2" />
<circle cx="720.0" cy="1080.0" r="2.0" stroke="#0000b2" stroke-width="4.0" fill="#0000b2" />
<circle cx="720.0" cy="1120.0" r="2.0" stroke="#0000b2" stroke-width="4.0" fill="#0000b2" />
<circle cx="720.0" cy="1140.0" r="2.0" stroke="#0000b2" stroke-width="4.0" fill="#0000b2" />
<circle cx="800.0" cy="1100.0" r="2.0" stroke="#b20000" stroke-width="4.0" fill="#b20000" />
</g>
<g>
<path d="M 650,1170 L 601,1170 L 601,1110 L 650,1110 C 660,1110 680,1120 679,1140 C 679,1160 660,1170 650,1170 Z" stroke="#000000" stroke-width="4.0" fill="none"/>
<circle cx="600.0" cy="1100.0" r="2.0" stroke="#0000b2" stroke-width="4.0" fill="#0000b2" />
<circle cx="600.0" cy="1120.0" r="2.0" stroke="#0000b2" stroke-width="4.0" fill="#0000b2" />
<circle cx="600.0" cy="1160.0" r="2.0" stroke="#0000b2" stroke-width="4.0" fill="#0000b2" />
<circle cx="600.0" cy="1180.0" r="2.0" stroke="#0000b2" stroke-width="4.0" fill="#0000b2" />
<circle cx="680.0" cy="1140.0" r="2.0" stroke="#b20000" stroke-width="4.0" fill="#b20000" />
</g>
<g>
<path d="M 630,1470 L 600,1470 C 610,1454 610,1426 600,1410 L 620,1410 C 650,1410 670,1420 680,1440 C 670,1460 650,1470 630,1470 Z" stroke="#000000" stroke-width="4.0" fill="none"/>
<circle cx="600.0" cy="1420.0" r="2.0" stroke="#0000b2" stroke-width="4.0" fill="#0000b2" />
<circle cx="600.0" cy="1440.0" r="2.0" stroke="#0000b2" stroke-width="4.0" fill="#0000b2" />
<circle cx="600.0" cy="1460.0" r="2.0" stroke="#0000b2" stroke-width="4.0" fill="#0000b2" />
<circle cx="680.0" cy="1440.0" r="2.0" stroke="#b20000" stroke-width="4.0" fill="#b20000" />
</g>
<g>
<path d="M 630,1550 L 600,1550 C 610,1534 610,1506 600,1490 L 620,1490 C 650,1490 670,1500 680,1520 C 670,1540 650,1550 630,1550 Z" stroke="#000000" stroke-width="4.0" fill="none"/>
<circle cx="600.0" cy="1500.0" r="2.0" stroke="#0000b2" stroke-width="4.0" fill="#0000b2" />
<circle cx="600.0" cy="1540.0" r="2.0" stroke="#0000b2" stroke-width="4.0" fill="#0000b2" />
<circle cx="680.0" cy="1520.0" r="2.0" stroke="#b20000" stroke-width="4.0" fill="#b20000" />
</g>
<g>
<path d="M 630,1630 L 600,1630 C 610,1614 610,1586 600,1570 L 620,1570 C 650,1570 670,1580 680,1600 C 670,1620 650,1630 630,1630 Z" stroke="#000000" stroke-width="4.0" fill="none"/>
<circle cx="600.0" cy="1580.0" r="2.0" stroke="#0000b2" stroke-width="4.0" fill="#0000b2" />
<circle cx="600.0" cy="1600.0" r="2.0" stroke="#0000b2" stroke-width="4.0" fill="#0000b2" />
<circle cx="600.0" cy="1620.0" r="2.0" stroke="#0000b2" stroke-width="4.0" fill="#0000b2" />
<circle cx="680.0" cy="1600.0" r="2.0" stroke="#b20000" stroke-width="4.0" fill="#b20000" />
</g>
<g>
<path d="M 770,1550 L 721,1550 L 721,1490 L 770,1490 C 780,1490 800,1500 799,1520 C 799,1540 780,1550 770,1550 Z" stroke="#000000" stroke-width="4.0" fill="none"/>
<circle cx="720.0" cy="1500.0" r="2.0" stroke="#0000b2" stroke-width="4.0" fill="#0000b2" />
<circle cx="720.0" cy="1520.0" r="2.0" stroke="#0000b2" stroke-width="4.0" fill="#0000b2" />
<circle cx="720.0" cy="1540.0" r="2.0" stroke="#0000b2" stroke-width="4.0" fill="#0000b2" />
<circle cx="800.0" cy="1520.0" r="2.0" stroke="#b20000" stroke-width="4.0" fill="#b20000" />
</g>
<g>
<circle cx="896.0" cy="1520.0" r="9.0" stroke="#000000" stroke-width="4.0" fill="none" />
<circle cx="896.0" cy="1520.0" r="15.0" stroke="#000000" stroke-width="4.0" fill="none" />
<text text-anchor="start" x="925.0" y="1529.0" fill="#000000" style="font-size:24px"><tspan style="font-style:italic;">Z1 &gt;</tspan></text>
<circle cx="880.0" cy="1520.0" r="2.0" stroke="#0000b2" stroke-width="4.0" fill="#0000b2" />
</g>
<g>
<path d="M 821,1508 L 839,1520 L 821,1532 Z" stroke="#000000" stroke-width="4.0" fill="none"/>
<circle cx="850.0" cy="1520.0" r="9.0" stroke="#000000" stroke-width="4.0" fill="none" />
<circle cx="820.0" cy="1520.0" r="2.0" stroke="#0000b2" stroke-width="4.0" fill="#0000b2" />
<circle cx="860.0" cy="1520.0" r="2.0" stroke="#b20000" stroke-width="4.0" fill="#b20000" />
</g>
<g>
<path d="M 630,1730 L 600,1730 C 610,1714 610,1686 600,1670 L 620,1670 C 650,1670 670,1680 680,1700 C 670,1720 650,1730 630,1730 Z" stroke="#000000" stroke-width="4.0" fill="none"/>
<circle cx="600.0" cy="1680.0" r="2.0" stroke="#0000b2" stroke-width="4.0" fill="#0000b2" />
<circle cx="600.0" cy="1700.0" r="2.0" stroke="#0000b2" stroke-width="4.0" fill="#0000b2" />
<circle cx="600.0" cy="1720.0" r="2.0" stroke="#0000b2" stroke-width="4.0" fill="#0000b2" />
<circle cx="680.0" cy="1700.0" r="2.0" stroke="#b20000" stroke-width="4.0" fill="#b20000" />
</g>
<g>
<path d="M 630,1810 L 600,1810 C 610,1794 610,1766 600,1750 L 620,1750 C 650,1750 670,1760 680,1780 C 670,1800 650,1810 630,1810 Z" stroke="#000000" stroke-width="4.0" fill="none"/>
<circle cx="600.0" cy="1760.0" r="2.0" stroke="#0000b2" stroke-width="4.0" fill="#0000b2" />
<circle cx="600.0" cy="1800.0" r="2.0" stroke="#0000b2" stroke-width="4.0" fill="#0000b2" />
<circle cx="680.0" cy="1780.0" r="2.0" stroke="#b20000" stroke-width="4.0" fill="#b20000" />
</g>
<g>
<path d="M 630,1890 L 600,1890 C 610,1874 610,1846 600,1830 L 620,1830 C 650,1830 670,1840 680,1860 C 670,1880 650,1890 630,1890 Z" stroke="#000000" stroke-width="4.0" fill="none"/>
<circle cx="600.0" cy="1840.0" r="2.0" stroke="#0000b2" stroke-width="4.0" fill="#0000b2" />
<circle cx="600.0" cy="1860.0" r="2.0" stroke="#0000b2" stroke-width="4.0" fill="#0000b2" />
<circle cx="600.0" cy="1880.0" r="2.0" stroke="#0000b2" stroke-width="4.0" fill="#0000b2" />
<circle cx="680.0" cy="1860.0" r="2.0" stroke="#b20000" stroke-width="4.0" fill="#b20000" />
</g>
<g>
<path d="M 770,1810 L 721,1810 L 721,1750 L 770,1750 C 780,1750 800,1760 799,1780 C 799,1800 780,1810 770,1810 Z" stroke="#000000" stroke-width="4.0" fill="none"/>
<circle cx="720.0" cy="1760.0" r="2.0" stroke="#0000b2" stroke-width="4.0" fill="#0000b2" />
<circle cx="720.0" cy="1780.0" r="2.0" stroke="#0000b2" stroke-width="4.0" fill="#0000b2" />
<circle cx="720.0" cy="1800.0" r="2.0" stroke="#0000b2" stroke-width="4.0" fill="#0000b2" />
<circle cx="800.0" cy="1780.0" r="2.0" stroke="#b20000" stroke-width="4.0" fill="#b20000" />
</g>
<g>
<path d="M 821,1768 L 839,1780 L 821,1792 Z" stroke="#000000" stroke-width="4.0" fill="none"/>
<circle cx="850.0" cy="1780.0" r="9.0" stroke="#000000" stroke-width="4.0" fill="none" />
<circle cx="820.0" cy="1780.0" r="2.0" stroke="#0000b2" stroke-width="4.0" fill="#0000b2" />
<circle cx="860.0" cy="1780.0" r="2.0" stroke="#b20000" stroke-width="4.0" fill="#b20000" />
</g>
<g>
<circle cx="896.0" cy="1780.0" r="9.0" stroke="#000000" stroke-width="4.0" fill="none" />
<circle cx="896.0" cy="1780.0" r="15.0" stroke="#000000" stroke-width="4.0" fill="none" />
<text text-anchor="start" x="925.0" y="1789.0" fill="#000000" style="font-size:24px"><tspan style="font-style:italic;">Z2 &lt;</tspan></text>
<circle cx="880.0" cy="1780.0" r="2.0" stroke="#0000b2" stroke-width="4.0" fill="#0000b2" />
</g>
<g>
<path d="M 630,2010 L 600,2010 C 610,1994 610,1966 600,1950 L 620,1950 C 650,1950 670,1960 680,1980 C 670,2000 650,2010 630,2010 Z" stroke="#000000" stroke-width="4.0" fill="none"/>
<circle cx="600.0" cy="1940.0" r="2.0" stroke="#0000b2" stroke-width="4.0" fill="#0000b2" />
<circle cx="600.0" cy="1960.0" r="2.0" stroke="#0000b2" stroke-width="4.0" fill="#0000b2" />
<circle cx="600.0" cy="2000.0" r="2.0" stroke="#0000b2" stroke-width="4.0" fill="#0000b2" />
<circle cx="600.0" cy="2020.0" r="2.0" stroke="#0000b2" stroke-width="4.0" fill="#0000b2" />
<circle cx="680.0" cy="1980.0" r="2.0" stroke="#b20000" stroke-width="4.0" fill="#b20000" />
</g>
<g>
<path d="M 630,2110 L 600,2110 C 610,2094 610,2066 600,2050 L 620,2050 C 650,2050 670,2060 680,2080 C 670,2100 650,2110 630,2110 Z" stroke="#000000" stroke-width="4.0" fill="none"/>
<circle cx="600.0" cy="2040.0" r="2.0" stroke="#0000b2" stroke-width="4.0" fill="#0000b2" />
<circle cx="600.0" cy="2060.0" r="2.0" stroke="#0000b2" stroke-width="4.0" fill="#0000b2" />
<circle cx="600.0" cy="2100.0" r="2.0" stroke="#0000b2" stroke-width="4.0" fill="#0000b2" />
<circle cx="600.0" cy="2120.0" r="2.0" stroke="#0000b2" stroke-width="4.0" fill="#0000b2" />
<circle cx="680.0" cy="2080.0" r="2.0" stroke="#b20000" stroke-width="4.0" fill="#b20000" />
</g>
<g>
<path d="M 630,2210 L 600,2210 C 610,2194 610,2166 600,2150 L 620,2150 C 650,2150 670,2160 680,2180 C 670,2200 650,2210 630,2210 Z" stroke="#000000" stroke-width="4.0" fill="none"/>
<circle cx="600.0" cy="2140.0" r="2.0" stroke="#0000b2" stroke-width="4.0" fill="#0000b2" />
<circle cx="600.0" cy="2160.0" r="2.0" stroke="#0000b2" stroke-width="4.0" fill="#0000b2" />
<circle cx="600.0" cy="2200.0" r="2.0" stroke="#0000b2" stroke-width="4.0" fill="#0000b2" />
<circle cx="600.0" cy="2220.0" r="2.0" stroke="#0000b2" stroke-width="4.0" fill="#0000b2" />
<circle cx="680.0" cy="2180.0" r="2.0" stroke="#b20000" stroke-width="4.0" fill="#b20000" />
</g>
<g>
<path d="M 630,2310 L 600,2310 C 610,2294 610,2266 600,2250 L 620,2250 C 650,2250 670,2260 680,2280 C 670,2300 650,2310 630,2310 Z" stroke="#000000" stroke-width="4.0" fill="none"/>
<circle cx="600.0" cy="2240.0" r="2.0" stroke="#0000b2" stroke-width="4.0" fill="#0000b2" />
<circle cx="600.0" cy="2260.0" r="2.0" stroke="#0000b2" stroke-width="4.0" fill="#0000b2" />
<circle cx="600.0" cy="2300.0" r="2.0" stroke="#0000b2" stroke-width="4.0" fill="#0000b2" />
<circle cx="600.0" cy="2320.0" r="2.0" stroke="#0000b2" stroke-width="4.0" fill="#0000b2" />
<circle cx="680.0" cy="2280.0" r="2.0" stroke="#b20000" stroke-width="4.0" fill="#b20000" />
</g>
<g>
<path d="M 770,2150 L 721,2150 L 721,2090 L 770,2090 C 780,2090 800,2100 799,2120 C 799,2140 780,2150 770,2150 Z" stroke="#000000" stroke-width="4.0" fill="none"/>
<circle cx="720.0" cy="2080.0" r="2.0" stroke="#0000b2" stroke-width="4.0" fill="#0000b2" />
<circle cx="720.0" cy="2100.0" r="2.0" stroke="#0000b2" stroke-width="4.0" fill="#0000b2" />
<circle cx="720.0" cy="2140.0" r="2.0" stroke="#0000b2" stroke-width="4.0" fill="#0000b2" />
<circle cx="720.0" cy="2160.0" r="2.0" stroke="#0000b2" stroke-width="4.0" fill="#0000b2" />
<circle cx="800.0" cy="2120.0" r="2.0" stroke="#b20000" stroke-width="4.0" fill="#b20000" />
</g>
<g>
<path d="M 821,2108 L 839,2120 L 821,2132 Z" stroke="#000000" stroke-width="4.0" fill="none"/>
<circle cx="850.0" cy="2120.0" r="9.0" stroke="#000000" stroke-width="4.0" fill="none" />
<circle cx="820.0" cy="2120.0" r="2.0" stroke="#0000b2" stroke-width="4.0" fill="#0000b2" />
<circle cx="860.0" cy="2120.0" r="2.0" stroke="#b20000" stroke-width="4.0" fill="#b20000" />
</g>
<g>
<circle cx="896.0" cy="2120.0" r="9.0" stroke="#000000" stroke-width="4.0" fill="none" />
<circle cx="896.0" cy="2120.0" r="15.0" stroke="#000000" stroke-width="4.0" fill="none" />
<text text-anchor="start" x="925.0" y="2129.0" fill="#000000" style="font-size:24px"><tspan style="font-style:italic;">Z3 =</tspan></text>
<circle cx="880.0" cy="2120.0" r="2.0" stroke="#0000b2" stroke-width="4.0" fill="#0000b2" />
</g>
</g>
</svg>