<?xml version="1.0" encoding="UTF-8" standalone="no"?>
<!-- Created with Digital by H.Neemann -->
<!-- created: Mon Sep 25 15:17:01 ICT 2023 -->

<svg
   xmlns:svg="http://www.w3.org/2000/svg"
   xmlns="http://www.w3.org/2000/svg"
   width="117.45mm"
   height="257.85mm"
   viewBox="194 83 783 1719">
<g stroke-linecap="square">
<path d="M 860,1280 L 880,1280" stroke="#0000b2" stroke-width="4.0" fill="none"/>
<path d="M 680,640 L 700,640 L 700,720 L 740,720" stroke="#0000b2" stroke-width="4.0" fill="none"/>
<path d="M 500,940 L 500,900 L 600,900" stroke="#0000b2" stroke-width="4.0" fill="none"/>
<path d="M 680,800 L 680,780 L 740,780 L 744,780" stroke="#0000b2" stroke-width="4.0" fill="none"/>
<path d="M 340,1040 L 460,1040 L 460,1220 L 600,1220 L 607,1220" stroke="#0000b2" stroke-width="4.0" fill="none"/>
<path d="M 680,1300 L 780,1300" stroke="#0000b2" stroke-width="4.0" fill="none"/>
<path d="M 440,1500 L 440,1300 L 600,1300 L 607,1300" stroke="#0000b2" stroke-width="4.0" fill="none"/>
<path d="M 680,280 L 720,280 L 720,380 L 740,380" stroke="#0000b2" stroke-width="4.0" fill="none"/>
<path d="M 500,660 L 500,540 L 600,540" stroke="#0000b2" stroke-width="4.0" fill="none"/>
<path d="M 820,420 L 840,420" stroke="#0000b2" stroke-width="4.0" fill="none"/>
<path d="M 380,1120 L 380,1200 L 600,1200 L 604,1200" stroke="#0000b2" stroke-width="4.0" fill="none"/>
<path d="M 340,180 L 460,180 L 460,280 L 600,280" stroke="#0000b2" stroke-width="4.0" fill="none"/>
<path d="M 520,940 L 520,820 L 600,820" stroke="#0000b2" stroke-width="4.0" fill="none"/>
<path d="M 680,440 L 740,440 L 744,440" stroke="#0000b2" stroke-width="4.0" fill="none"/>
<path d="M 400,1800 L 400,1720 L 600,1720 L 604,1720" stroke="#0000b2" stroke-width="4.0" fill="none"/>
<path d="M 380,780 L 380,700 L 600,700" stroke="#0000b2" stroke-width="4.0" fill="none"/>
<path d="M 680,1580 L 680,1600 L 740,1600" stroke="#0000b2" stroke-width="4.0" fill="none"/>
<path d="M 380,1200 L 380,1480 L 600,1480 L 604,1480" stroke="#0000b2" stroke-width="4.0" fill="none"/>
<path d="M 680,520 L 680,460 L 740,460" stroke="#0000b2" stroke-width="4.0" fill="none"/>
<path d="M 520,380 L 520,460 L 600,460" stroke="#0000b2" stroke-width="4.0" fill="none"/>
<path d="M 340,1100 L 520,1100 L 520,1240 L 600,1240 L 604,1240" stroke="#0000b2" stroke-width="4.0" fill="none"/>
<path d="M 680,1740 L 700,1740 L 700,1660 L 740,1660" stroke="#0000b2" stroke-width="4.0" fill="none"/>
<path d="M 440,1800 L 440,1740 L 600,1740 L 607,1740" stroke="#0000b2" stroke-width="4.0" fill="none"/>
<path d="M 400,1280 L 400,1360 L 600,1360 L 604,1360" stroke="#0000b2" stroke-width="4.0" fill="none"/>
<path d="M 340,980 L 400,980 L 400,1280 L 600,1280 L 604,1280" stroke="#0000b2" stroke-width="4.0" fill="none"/>
<path d="M 820,1620 L 840,1620" stroke="#0000b2" stroke-width="4.0" fill="none"/>
<path d="M 400,260 L 400,340 L 600,340" stroke="#0000b2" stroke-width="4.0" fill="none"/>
<path d="M 680,1500 L 700,1500 L 700,1580 L 740,1580" stroke="#0000b2" stroke-width="4.0" fill="none"/>
<path d="M 680,720 L 680,740 L 740,740 L 744,740" stroke="#0000b2" stroke-width="4.0" fill="none"/>
<path d="M 680,1380 L 700,1380 L 700,1320 L 780,1320" stroke="#0000b2" stroke-width="4.0" fill="none"/>
<path d="M 680,360 L 700,360 L 700,400 L 740,400 L 744,400" stroke="#0000b2" stroke-width="4.0" fill="none"/>
<path d="M 680,1660 L 680,1640 L 740,1640" stroke="#0000b2" stroke-width="4.0" fill="none"/>
<path d="M 680,1220 L 680,1260 L 780,1260" stroke="#0000b2" stroke-width="4.0" fill="none"/>
<path d="M 400,340 L 400,620 L 600,620" stroke="#0000b2" stroke-width="4.0" fill="none"/>
<path d="M 340,240 L 520,240 L 520,380 L 600,380" stroke="#0000b2" stroke-width="4.0" fill="none"/>
<path d="M 680,880 L 700,880 L 700,800 L 740,800" stroke="#0000b2" stroke-width="4.0" fill="none"/>
<path d="M 680,1140 L 700,1140 L 700,1240 L 780,1240" stroke="#0000b2" stroke-width="4.0" fill="none"/>
<path d="M 380,420 L 380,500 L 600,500" stroke="#0000b2" stroke-width="4.0" fill="none"/>
<path d="M 820,760 L 840,760" stroke="#0000b2" stroke-width="4.0" fill="none"/>
<path d="M 340,120 L 400,120 L 400,260 L 600,260" stroke="#0000b2" stroke-width="4.0" fill="none"/>
<path d="M 400,1360 L 400,1720" stroke="#0000b2" stroke-width="4.0" fill="none"/>
<path d="M 400,620 L 400,940" stroke="#0000b2" stroke-width="4.0" fill="none"/>
<path d="M 604,1520 L 600,1520 L 500,1520 L 500,1400 L 600,1400 L 604,1400" stroke="#0000b2" stroke-width="4.0" fill="none"/>
<path d="M 500,1160 L 500,1400" stroke="#0000b2" stroke-width="4.0" fill="none"/>
<path d="M 604,1680 L 600,1680 L 500,1680 L 500,1760 L 600,1760 L 604,1760" stroke="#0000b2" stroke-width="4.0" fill="none"/>
<path d="M 600,660 L 500,660 L 500,740 L 600,740" stroke="#0000b2" stroke-width="4.0" fill="none"/>
<path d="M 500,1760 L 500,1800" stroke="#0000b2" stroke-width="4.0" fill="none"/>
<path d="M 500,740 L 500,900" stroke="#0000b2" stroke-width="4.0" fill="none"/>
<path d="M 500,1520 L 500,1680" stroke="#0000b2" stroke-width="4.0" fill="none"/>
<path d="M 500,300 L 500,540" stroke="#0000b2" stroke-width="4.0" fill="none"/>
<path d="M 600,300 L 500,300 L 500,220 L 280,220 L 280,240 L 300,240" stroke="#0000b2" stroke-width="4.0" fill="none"/>
<path d="M 604,1160 L 600,1160 L 500,1160 L 500,1080 L 280,1080 L 280,1100 L 300,1100" stroke="#0000b2" stroke-width="4.0" fill="none"/>
<path d="M 300,1040 L 280,1040 L 280,1020 L 440,1020 L 440,1140 L 600,1140 L 607,1140" stroke="#0000b2" stroke-width="4.0" fill="none"/>
<path d="M 600,360 L 440,360 L 440,160 L 280,160 L 280,180 L 300,180" stroke="#0000b2" stroke-width="4.0" fill="none"/>
<path d="M 607,1580 L 600,1580 L 440,1580 L 440,1500 L 600,1500 L 607,1500" stroke="#0000b2" stroke-width="4.0" fill="none"/>
<path d="M 600,640 L 440,640 L 440,520 L 600,520" stroke="#0000b2" stroke-width="4.0" fill="none"/>
<path d="M 600,800 L 440,800 L 440,880 L 600,880" stroke="#0000b2" stroke-width="4.0" fill="none"/>
<path d="M 440,1580 L 440,1740" stroke="#0000b2" stroke-width="4.0" fill="none"/>
<path d="M 440,360 L 440,520" stroke="#0000b2" stroke-width="4.0" fill="none"/>
<path d="M 440,880 L 440,940" stroke="#0000b2" stroke-width="4.0" fill="none"/>
<path d="M 440,1140 L 440,1300" stroke="#0000b2" stroke-width="4.0" fill="none"/>
<path d="M 440,640 L 440,800" stroke="#0000b2" stroke-width="4.0" fill="none"/>
<path d="M 604,1320 L 600,1320 L 520,1320 L 520,1600 L 600,1600 L 604,1600" stroke="#0000b2" stroke-width="4.0" fill="none"/>
<path d="M 520,1600 L 520,1800" stroke="#0000b2" stroke-width="4.0" fill="none"/>
<path d="M 520,460 L 520,820" stroke="#0000b2" stroke-width="4.0" fill="none"/>
<path d="M 520,1240 L 520,1320" stroke="#0000b2" stroke-width="4.0" fill="none"/>
<path d="M 600,420 L 380,420 L 380,100 L 280,100 L 280,120 L 300,120" stroke="#0000b2" stroke-width="4.0" fill="none"/>
<path d="M 604,1120 L 600,1120 L 380,1120 L 380,960 L 280,960 L 280,980 L 300,980" stroke="#0000b2" stroke-width="4.0" fill="none"/>
<path d="M 600,780 L 380,780 L 380,860 L 600,860" stroke="#0000b2" stroke-width="4.0" fill="none"/>
<path d="M 604,1560 L 600,1560 L 380,1560 L 380,1640 L 600,1640 L 604,1640" stroke="#0000b2" stroke-width="4.0" fill="none"/>
<path d="M 380,860 L 380,940" stroke="#0000b2" stroke-width="4.0" fill="none"/>
<path d="M 380,1640 L 380,1800" stroke="#0000b2" stroke-width="4.0" fill="none"/>
<path d="M 380,1480 L 380,1560" stroke="#0000b2" stroke-width="4.0" fill="none"/>
<path d="M 380,500 L 380,700" stroke="#0000b2" stroke-width="4.0" fill="none"/>
<path d="M 607,1380 L 600,1380 L 460,1380 L 460,1660 L 600,1660 L 607,1660" stroke="#0000b2" stroke-width="4.0" fill="none"/>
<path d="M 460,1660 L 460,1800" stroke="#0000b2" stroke-width="4.0" fill="none"/>
<path d="M 600,440 L 460,440 L 460,720 L 600,720" stroke="#0000b2" stroke-width="4.0" fill="none"/>
<path d="M 460,1220 L 460,1380" stroke="#0000b2" stroke-width="4.0" fill="none"/>
<path d="M 460,720 L 460,940" stroke="#0000b2" stroke-width="4.0" fill="none"/>
<path d="M 460,280 L 460,440" stroke="#0000b2" stroke-width="4.0" fill="none"/>
<path d="M 741,380 L 741,389" stroke="#000000" stroke-width="4.0" fill="none"/>
<path d="M 741,460 L 741,451" stroke="#000000" stroke-width="4.0" fill="none"/>
<path d="M 741,720 L 741,729" stroke="#000000" stroke-width="4.0" fill="none"/>
<path d="M 741,800 L 741,791" stroke="#000000" stroke-width="4.0" fill="none"/>
<path d="M 741,1580 L 741,1589" stroke="#000000" stroke-width="4.0" fill="none"/>
<path d="M 741,1660 L 741,1651" stroke="#000000" stroke-width="4.0" fill="none"/>
<path d="M 781,1240 L 781,1249" stroke="#000000" stroke-width="4.0" fill="none"/>
<path d="M 781,1320 L 781,1311" stroke="#000000" stroke-width="4.0" fill="none"/>
<g>
<circle cx="400.0" cy="1280.0" r="4.0" stroke="#0000b2" stroke-width="4.0" fill="#0000b2" />
<circle cx="440.0" cy="640.0" r="4.0" stroke="#0000b2" stroke-width="4.0" fill="#0000b2" />
<circle cx="500.0" cy="900.0" r="4.0" stroke="#0000b2" stroke-width="4.0" fill="#0000b2" />
<circle cx="400.0" cy="260.0" r="4.0" stroke="#0000b2" stroke-width="4.0" fill="#0000b2" />
<circle cx="440.0" cy="520.0" r="4.0" stroke="#0000b2" stroke-width="4.0" fill="#0000b2" />
<circle cx="500.0" cy="1160.0" r="4.0" stroke="#0000b2" stroke-width="4.0" fill="#0000b2" />
<circle cx="380.0" cy="780.0" r="4.0" stroke="#0000b2" stroke-width="4.0" fill="#0000b2" />
<circle cx="500.0" cy="1680.0" r="4.0" stroke="#0000b2" stroke-width="4.0" fill="#0000b2" />
<circle cx="440.0" cy="1300.0" r="4.0" stroke="#0000b2" stroke-width="4.0" fill="#0000b2" />
<circle cx="500.0" cy="660.0" r="4.0" stroke="#0000b2" stroke-width="4.0" fill="#0000b2" />
<circle cx="460.0" cy="280.0" r="4.0" stroke="#0000b2" stroke-width="4.0" fill="#0000b2" />
<circle cx="380.0" cy="1560.0" r="4.0" stroke="#0000b2" stroke-width="4.0" fill="#0000b2" />
<circle cx="500.0" cy="540.0" r="4.0" stroke="#0000b2" stroke-width="4.0" fill="#0000b2" />
<circle cx="440.0" cy="800.0" r="4.0" stroke="#0000b2" stroke-width="4.0" fill="#0000b2" />
<circle cx="380.0" cy="420.0" r="4.0" stroke="#0000b2" stroke-width="4.0" fill="#0000b2" />
<circle cx="520.0" cy="1320.0" r="4.0" stroke="#0000b2" stroke-width="4.0" fill="#0000b2" />
<circle cx="440.0" cy="1580.0" r="4.0" stroke="#0000b2" stroke-width="4.0" fill="#0000b2" />
<circle cx="500.0" cy="300.0" r="4.0" stroke="#0000b2" stroke-width="4.0" fill="#0000b2" />
<circle cx="380.0" cy="1200.0" r="4.0" stroke="#0000b2" stroke-width="4.0" fill="#0000b2" />
<circle cx="520.0" cy="820.0" r="4.0" stroke="#0000b2" stroke-width="4.0" fill="#0000b2" />
<circle cx="460.0" cy="440.0" r="4.0" stroke="#0000b2" stroke-width="4.0" fill="#0000b2" />
<circle cx="400.0" cy="1720.0" r="4.0" stroke="#0000b2" stroke-width="4.0" fill="#0000b2" />
<circle cx="380.0" cy="700.0" r="4.0" stroke="#0000b2" stroke-width="4.0" fill="#0000b2" />
<circle cx="520.0" cy="1600.0" r="4.0" stroke="#0000b2" stroke-width="4.0" fill="#0000b2" />
<circle cx="460.0" cy="1220.0" r="4.0" stroke="#0000b2" stroke-width="4.0" fill="#0000b2" />
<circle cx="380.0" cy="1480.0" r="4.0" stroke="#0000b2" stroke-width="4.0" fill="#0000b2" />
<circle cx="520.0" cy="460.0" r="4.0" stroke="#0000b2" stroke-width="4.0" fill="#0000b2" />
<circle cx="440.0" cy="1740.0" r="4.0" stroke="#0000b2" stroke-width="4.0" fill="#0000b2" />
<circle cx="460.0" cy="720.0" r="4.0" stroke="#0000b2" stroke-width="4.0" fill="#0000b2" />
<circle cx="400.0" cy="1360.0" r="4.0" stroke="#0000b2" stroke-width="4.0" fill="#0000b2" />
<circle cx="400.0" cy="340.0" r="4.0" stroke="#0000b2" stroke-width="4.0" fill="#0000b2" />
<circle cx="520.0" cy="1240.0" r="4.0" stroke="#0000b2" stroke-width="4.0" fill="#0000b2" />
<circle cx="440.0" cy="1500.0" r="4.0" stroke="#0000b2" stroke-width="4.0" fill="#0000b2" />
<circle cx="380.0" cy="860.0" r="4.0" stroke="#0000b2" stroke-width="4.0" fill="#0000b2" />
<circle cx="500.0" cy="1760.0" r="4.0" stroke="#0000b2" stroke-width="4.0" fill="#0000b2" />
<circle cx="380.0" cy="1120.0" r="4.0" stroke="#0000b2" stroke-width="4.0" fill="#0000b2" />
<circle cx="500.0" cy="740.0" r="4.0" stroke="#0000b2" stroke-width="4.0" fill="#0000b2" />
<circle cx="460.0" cy="1380.0" r="4.0" stroke="#0000b2" stroke-width="4.0" fill="#0000b2" />
<circle cx="440.0" cy="360.0" r="4.0" stroke="#0000b2" stroke-width="4.0" fill="#0000b2" />
<circle cx="380.0" cy="1640.0" r="4.0" stroke="#0000b2" stroke-width="4.0" fill="#0000b2" />
<circle cx="400.0" cy="620.0" r="4.0" stroke="#0000b2" stroke-width="4.0" fill="#0000b2" />
<circle cx="500.0" cy="1520.0" r="4.0" stroke="#0000b2" stroke-width="4.0" fill="#0000b2" />
<circle cx="440.0" cy="880.0" r="4.0" stroke="#0000b2" stroke-width="4.0" fill="#0000b2" />
<circle cx="440.0" cy="1140.0" r="4.0" stroke="#0000b2" stroke-width="4.0" fill="#0000b2" />
<circle cx="380.0" cy="500.0" r="4.0" stroke="#0000b2" stroke-width="4.0" fill="#0000b2" />
<circle cx="500.0" cy="1400.0" r="4.0" stroke="#0000b2" stroke-width="4.0" fill="#0000b2" />
<circle cx="520.0" cy="380.0" r="4.0" stroke="#0000b2" stroke-width="4.0" fill="#0000b2" />
<circle cx="460.0" cy="1660.0" r="4.0" stroke="#0000b2" stroke-width="4.0" fill="#0000b2" />
</g>
<g>
<path d="M 249,85 L 279,85 L 279,115 L 249,115 Z" stroke="#000000" stroke-width="4.0" fill="none"/>
<circle cx="264.0" cy="100.0" r="9.0" stroke="#000000" stroke-width="4.0" fill="none" />
<text text-anchor="end" x="235.0" y="109.0" fill="#000000" style="font-size:24px"><tspan style="font-style:italic;">A</tspan></text>
<circle cx="280.0" cy="100.0" r="2.0" stroke="#b20000" stroke-width="4.0" fill="#b20000" />
</g>
<g>
<path d="M 249,145 L 279,145 L 279,175 L 249,175 Z" stroke="#000000" stroke-width="4.0" fill="none"/>
<circle cx="264.0" cy="160.0" r="9.0" stroke="#000000" stroke-width="4.0" fill="none" />
<text text-anchor="end" x="235.0" y="169.0" fill="#000000" style="font-size:24px"><tspan style="font-style:italic;">B</tspan></text>
<circle cx="280.0" cy="160.0" r="2.0" stroke="#b20000" stroke-width="4.0" fill="#b20000" />
</g>
<g>
<path d="M 249,205 L 279,205 L 279,235 L 249,235 Z" stroke="#000000" stroke-width="4.0" fill="none"/>
<circle cx="264.0" cy="220.0" r="9.0" stroke="#000000" stroke-width="4.0" fill="none" />
<text text-anchor="end" x="235.0" y="229.0" fill="#000000" style="font-size:24px"><tspan style="font-style:italic;">Cin</tspan></text>
<circle cx="280.0" cy="220.0" r="2.0" stroke="#b20000" stroke-width="4.0" fill="#b20000" />
</g>
<g>
<circle cx="856.0" cy="420.0" r="9.0" stroke="#000000" stroke-width="4.0" fill="none" />
<circle cx="856.0" cy="420.0" r="15.0" stroke="#000000" stroke-width="4.0" fill="none" />
<text text-anchor="start" x="885.0" y="429.0" fill="#000000" style="font-size:24px"><tspan style="font-style:italic;">Sum</tspan></text>
<circle cx="840.0" cy="420.0" r="2.0" stroke="#0000b2" stroke-width="4.0" fill="#0000b2" />
</g>
<g>
<circle cx="856.0" cy="760.0" r="9.0" stroke="#000000" stroke-width="4.0" fill="none" />
<circle cx="856.0" cy="760.0" r="15.0" stroke="#000000" stroke-width="4.0" fill="none" />
<text text-anchor="start" x="885.0" y="769.0" fill="#000000" style="font-size:24px"><tspan style="font-style:italic;">Cout</tspan></text>
<circle cx="840.0" cy="760.0" r="2.0" stroke="#0000b2" stroke-width="4.0" fill="#0000b2" />
</g>
<g>
<path d="M 301,108 L 319,120 L 301,132 Z" stroke="#000000" stroke-width="4.0" fill="none"/>
<circle cx="330.0" cy="120.0" r="9.0" stroke="#000000" stroke-width="4.0" fill="none" />
<circle cx="300.0" cy="120.0" r="2.0" stroke="#0000b2" stroke-width="4.0" fill="#0000b2" />
<circle cx="340.0" cy="120.0" r="2.0" stroke="#b20000" stroke-width="4.0" fill="#b20000" />
</g>
<g>
<path d="M 301,168 L 319,180 L 301,192 Z" stroke="#000000" stroke-width="4.0" fill="none"/>
<circle cx="330.0" cy="180.0" r="9.0" stroke="#000000" stroke-width="4.0" fill="none" />
<circle cx="300.0" cy="180.0" r="2.0" stroke="#0000b2" stroke-width="4.0" fill="#0000b2" />
<circle cx="340.0" cy="180.0" r="2.0" stroke="#b20000" stroke-width="4.0" fill="#b20000" />
</g>
<g>
<path d="M 301,228 L 319,240 L 301,252 Z" stroke="#000000" stroke-width="4.0" fill="none"/>
<circle cx="330.0" cy="240.0" r="9.0" stroke="#000000" stroke-width="4.0" fill="none" />
<circle cx="300.0" cy="240.0" r="2.0" stroke="#0000b2" stroke-width="4.0" fill="#0000b2" />
<circle cx="340.0" cy="240.0" r="2.0" stroke="#b20000" stroke-width="4.0" fill="#b20000" />
</g>
<g>
<path d="M 650,310 L 601,310 L 601,250 L 650,250 C 660,250 680,260 679,280 C 679,300 660,310 650,310 Z" stroke="#000000" stroke-width="4.0" fill="none"/>
<circle cx="600.0" cy="260.0" r="2.0" stroke="#0000b2" stroke-width="4.0" fill="#0000b2" />
<circle cx="600.0" cy="280.0" r="2.0" stroke="#0000b2" stroke-width="4.0" fill="#0000b2" />
<circle cx="600.0" cy="300.0" r="2.0" stroke="#0000b2" stroke-width="4.0" fill="#0000b2" />
<circle cx="680.0" cy="280.0" r="2.0" stroke="#b20000" stroke-width="4.0" fill="#b20000" />
</g>
<g>
<path d="M 650,390 L 601,390 L 601,330 L 650,330 C 660,330 680,340 679,360 C 679,380 660,390 650,390 Z" stroke="#000000" stroke-width="4.0" fill="none"/>
<circle cx="600.0" cy="340.0" r="2.0" stroke="#0000b2" stroke-width="4.0" fill="#0000b2" />
<circle cx="600.0" cy="360.0" r="2.0" stroke="#0000b2" stroke-width="4.0" fill="#0000b2" />
<circle cx="600.0" cy="380.0" r="2.0" stroke="#0000b2" stroke-width="4.0" fill="#0000b2" />
<circle cx="680.0" cy="360.0" r="2.0" stroke="#b20000" stroke-width="4.0" fill="#b20000" />
</g>
<g>
<path d="M 650,470 L 601,470 L 601,410 L 650,410 C 660,410 680,420 679,440 C 679,460 660,470 650,470 Z" stroke="#000000" stroke-width="4.0" fill="none"/>
<circle cx="600.0" cy="420.0" r="2.0" stroke="#0000b2" stroke-width="4.0" fill="#0000b2" />
<circle cx="600.0" cy="440.0" r="2.0" stroke="#0000b2" stroke-width="4.0" fill="#0000b2" />
<circle cx="600.0" cy="460.0" r="2.0" stroke="#0000b2" stroke-width="4.0" fill="#0000b2" />
<circle cx="680.0" cy="440.0" r="2.0" stroke="#b20000" stroke-width="4.0" fill="#b20000" />
</g>
<g>
<path d="M 650,550 L 601,550 L 601,490 L 650,490 C 660,490 680,500 679,520 C 679,540 660,550 650,550 Z" stroke="#000000" stroke-width="4.0" fill="none"/>
<circle cx="600.0" cy="500.0" r="2.0" stroke="#0000b2" stroke-width="4.0" fill="#0000b2" />
<circle cx="600.0" cy="520.0" r="2.0" stroke="#0000b2" stroke-width="4.0" fill="#0000b2" />
<circle cx="600.0" cy="540.0" r="2.0" stroke="#0000b2" stroke-width="4.0" fill="#0000b2" />
<circle cx="680.0" cy="520.0" r="2.0" stroke="#b20000" stroke-width="4.0" fill="#b20000" />
</g>
<g>
<path d="M 770,450 L 740,450 C 750,434 750,406 740,390 L 760,390 C 790,390 810,400 820,420 C 810,440 790,450 770,450 Z" stroke="#000000" stroke-width="4.0" fill="none"/>
<circle cx="740.0" cy="380.0" r="2.0" stroke="#0000b2" stroke-width="4.0" fill="#0000b2" />
<circle cx="740.0" cy="400.0" r="2.0" stroke="#0000b2" stroke-width="4.0" fill="#0000b2" />
<circle cx="740.0" cy="440.0" r="2.0" stroke="#0000b2" stroke-width="4.0" fill="#0000b2" />
<circle cx="740.0" cy="460.0" r="2.0" stroke="#0000b2" stroke-width="4.0" fill="#0000b2" />
<circle cx="820.0" cy="420.0" r="2.0" stroke="#b20000" stroke-width="4.0" fill="#b20000" />
</g>
<g>
<path d="M 650,670 L 601,670 L 601,610 L 650,610 C 660,610 680,620 679,640 C 679,660 660,670 650,670 Z" stroke="#000000" stroke-width="4.0" fill="none"/>
<circle cx="600.0" cy="620.0" r="2.0" stroke="#0000b2" stroke-width="4.0" fill="#0000b2" />
<circle cx="600.0" cy="640.0" r="2.0" stroke="#0000b2" stroke-width="4.0" fill="#0000b2" />
<circle cx="600.0" cy="660.0" r="2.0" stroke="#0000b2" stroke-width="4.0" fill="#0000b2" />
<circle cx="680.0" cy="640.0" r="2.0" stroke="#b20000" stroke-width="4.0" fill="#b20000" />
</g>
<g>
<path d="M 650,750 L 601,750 L 601,690 L 650,690 C 660,690 680,700 679,720 C 679,740 660,750 650,750 Z" stroke="#000000" stroke-width="4.0" fill="none"/>
<circle cx="600.0" cy="700.0" r="2.0" stroke="#0000b2" stroke-width="4.0" fill="#0000b2" />
<circle cx="600.0" cy="720.0" r="2.0" stroke="#0000b2" stroke-width="4.0" fill="#0000b2" />
<circle cx="600.0" cy="740.0" r="2.0" stroke="#0000b2" stroke-width="4.0" fill="#0000b2" />
<circle cx="680.0" cy="720.0" r="2.0" stroke="#b20000" stroke-width="4.0" fill="#b20000" />
</g>
<g>
<path d="M 650,830 L 601,830 L 601,770 L 650,770 C 660,770 680,780 679,800 C 679,820 660,830 650,830 Z" stroke="#000000" stroke-width="4.0" fill="none"/>
<circle cx="600.0" cy="780.0" r="2.0" stroke="#0000b2" stroke-width="4.0" fill="#0000b2" />
<circle cx="600.0" cy="800.0" r="2.0" stroke="#0000b2" stroke-width="4.0" fill="#0000b2" />
<circle cx="600.0" cy="820.0" r="2.0" stroke="#0000b2" stroke-width="4.0" fill="#0000b2" />
<circle cx="680.0" cy="800.0" r="2.0" stroke="#b20000" stroke-width="4.0" fill="#b20000" />
</g>
<g>
<path d="M 770,790 L 740,790 C 750,774 750,746 740,730 L 760,730 C 790,730 810,740 820,760 C 810,780 790,790 770,790 Z" stroke="#000000" stroke-width="4.0" fill="none"/>
<circle cx="740.0" cy="720.0" r="2.0" stroke="#0000b2" stroke-width="4.0" fill="#0000b2" />
<circle cx="740.0" cy="740.0" r="2.0" stroke="#0000b2" stroke-width="4.0" fill="#0000b2" />
<circle cx="740.0" cy="780.0" r="2.0" stroke="#0000b2" stroke-width="4.0" fill="#0000b2" />
<circle cx="740.0" cy="800.0" r="2.0" stroke="#0000b2" stroke-width="4.0" fill="#0000b2" />
<circle cx="820.0" cy="760.0" r="2.0" stroke="#b20000" stroke-width="4.0" fill="#b20000" />
</g>
<g>
<path d="M 249,945 L 279,945 L 279,975 L 249,975 Z" stroke="#000000" stroke-width="4.0" fill="none"/>
<circle cx="264.0" cy="960.0" r="9.0" stroke="#000000" stroke-width="4.0" fill="none" />
<text text-anchor="end" x="235.0" y="969.0" fill="#000000" style="font-size:24px"><tspan style="font-style:italic;">A</tspan></text>
<circle cx="280.0" cy="960.0" r="2.0" stroke="#b20000" stroke-width="4.0" fill="#b20000" />
</g>
<g>
<path d="M 249,1005 L 279,1005 L 279,1035 L 249,1035 Z" stroke="#000000" stroke-width="4.0" fill="none"/>
<circle cx="264.0" cy="1020.0" r="9.0" stroke="#000000" stroke-width="4.0" fill="none" />
<text text-anchor="end" x="235.0" y="1029.0" fill="#000000" style="font-size:24px"><tspan style="font-style:italic;">B</tspan></text>
<circle cx="280.0" cy="1020.0" r="2.0" stroke="#b20000" stroke-width="4.0" fill="#b20000" />
</g>
<g>
<path d="M 249,1065 L 279,1065 L 279,1095 L 249,1095 Z" stroke="#000000" stroke-width="4.0" fill="none"/>
<circle cx="264.0" cy="1080.0" r="9.0" stroke="#000000" stroke-width="4.0" fill="none" />
<text text-anchor="end" x="235.0" y="1089.0" fill="#000000" style="font-size:24px"><tspan style="font-style:italic;">Cin</tspan></text>
<circle cx="280.0" cy="1080.0" r="2.0" stroke="#b20000" stroke-width="4.0" fill="#b20000" />
</g>
<g>
<circle cx="896.0" cy="1280.0" r="9.0" stroke="#000000" stroke-width="4.0" fill="none" />
<circle cx="896.0" cy="1280.0" r="15.0" stroke="#000000" stroke-width="4.0" fill="none" />
<text text-anchor="start" x="925.0" y="1289.0" fill="#000000" style="font-size:24px"><tspan style="font-style:italic;">Sum</tspan></text>
<circle cx="880.0" cy="1280.0" r="2.0" stroke="#0000b2" stroke-width="4.0" fill="#0000b2" />
</g>
<g>
<circle cx="856.0" cy="1620.0" r="9.0" stroke="#000000" stroke-width="4.0" fill="none" />
<circle cx="856.0" cy="1620.0" r="15.0" stroke="#000000" stroke-width="4.0" fill="none" />
<text text-anchor="start" x="885.0" y="1629.0" fill="#000000" style="font-size:24px"><tspan style="font-style:italic;">Cout</tspan></text>
<circle cx="840.0" cy="1620.0" r="2.0" stroke="#0000b2" stroke-width="4.0" fill="#0000b2" />
</g>
<g>
<path d="M 301,968 L 319,980 L 301,992 Z" stroke="#000000" stroke-width="4.0" fill="none"/>
<circle cx="330.0" cy="980.0" r="9.0" stroke="#000000" stroke-width="4.0" fill="none" />
<circle cx="300.0" cy="980.0" r="2.0" stroke="#0000b2" stroke-width="4.0" fill="#0000b2" />
<circle cx="340.0" cy="980.0" r="2.0" stroke="#b20000" stroke-width="4.0" fill="#b20000" />
</g>
<g>
<path d="M 301,1028 L 319,1040 L 301,1052 Z" stroke="#000000" stroke-width="4.0" fill="none"/>
<circle cx="330.0" cy="1040.0" r="9.0" stroke="#000000" stroke-width="4.0" fill="none" />
<circle cx="300.0" cy="1040.0" r="2.0" stroke="#0000b2" stroke-width="4.0" fill="#0000b2" />
<circle cx="340.0" cy="1040.0" r="2.0" stroke="#b20000" stroke-width="4.0" fill="#b20000" />
</g>
<g>
<path d="M 301,1088 L 319,1100 L 301,1112 Z" stroke="#000000" stroke-width="4.0" fill="none"/>
<circle cx="330.0" cy="1100.0" r="9.0" stroke="#000000" stroke-width="4.0" fill="none" />
<circle cx="300.0" cy="1100.0" r="2.0" stroke="#0000b2" stroke-width="4.0" fill="#0000b2" />
<circle cx="340.0" cy="1100.0" r="2.0" stroke="#b20000" stroke-width="4.0" fill="#b20000" />
</g>
<g>
<path d="M 790,1650 L 741,1650 L 741,1590 L 790,1590 C 800,1590 820,1600 819,1620 C 819,1640 800,1650 790,1650 Z" stroke="#000000" stroke-width="4.0" fill="none"/>
<circle cx="740.0" cy="1580.0" r="2.0" stroke="#0000b2" stroke-width="4.0" fill="#0000b2" />
<circle cx="740.0" cy="1600.0" r="2.0" stroke="#0000b2" stroke-width="4.0" fill="#0000b2" />
<circle cx="740.0" cy="1640.0" r="2.0" stroke="#0000b2" stroke-width="4.0" fill="#0000b2" />
<circle cx="740.0" cy="1660.0" r="2.0" stroke="#0000b2" stroke-width="4.0" fill="#0000b2" />
<circle cx="820.0" cy="1620.0" r="2.0" stroke="#b20000" stroke-width="4.0" fill="#b20000" />
</g>
<g>
<path d="M 830,1310 L 781,1310 L 781,1250 L 830,1250 C 840,1250 860,1260 859,1280 C 859,1300 840,1310 830,1310 Z" stroke="#000000" stroke-width="4.0" fill="none"/>
<circle cx="780.0" cy="1240.0" r="2.0" stroke="#0000b2" stroke-width="4.0" fill="#0000b2" />
<circle cx="780.0" cy="1260.0" r="2.0" stroke="#0000b2" stroke-width="4.0" fill="#0000b2" />
<circle cx="780.0" cy="1300.0" r="2.0" stroke="#0000b2" stroke-width="4.0" fill="#0000b2" />
<circle cx="780.0" cy="1320.0" r="2.0" stroke="#0000b2" stroke-width="4.0" fill="#0000b2" />
<circle cx="860.0" cy="1280.0" r="2.0" stroke="#b20000" stroke-width="4.0" fill="#b20000" />
</g>
<g>
<path d="M 630,1170 L 600,1170 C 610,1154 610,1126 600,1110 L 620,1110 C 650,1110 670,1120 680,1140 C 670,1160 650,1170 630,1170 Z" stroke="#000000" stroke-width="4.0" fill="none"/>
<circle cx="600.0" cy="1120.0" r="2.0" stroke="#0000b2" stroke-width="4.0" fill="#0000b2" />
<circle cx="600.0" cy="1140.0" r="2.0" stroke="#0000b2" stroke-width="4.0" fill="#0000b2" />
<circle cx="600.0" cy="1160.0" r="2.0" stroke="#0000b2" stroke-width="4.0" fill="#0000b2" />
<circle cx="680.0" cy="1140.0" r="2.0" stroke="#b20000" stroke-width="4.0" fill="#b20000" />
</g>
<g>
<path d="M 630,1250 L 600,1250 C 610,1234 610,1206 600,1190 L 620,1190 C 650,1190 670,1200 680,1220 C 670,1240 650,1250 630,1250 Z" stroke="#000000" stroke-width="4.0" fill="none"/>
<circle cx="600.0" cy="1200.0" r="2.0" stroke="#0000b2" stroke-width="4.0" fill="#0000b2" />
<circle cx="600.0" cy="1220.0" r="2.0" stroke="#0000b2" stroke-width="4.0" fill="#0000b2" />
<circle cx="600.0" cy="1240.0" r="2.0" stroke="#0000b2" stroke-width="4.0" fill="#0000b2" />
<circle cx="680.0" cy="1220.0" r="2.0" stroke="#b20000" stroke-width="4.0" fill="#b20000" />
</g>
<g>
<path d="M 630,1330 L 600,1330 C 610,1314 610,1286 600,1270 L 620,1270 C 650,1270 670,1280 680,1300 C 670,1320 650,1330 630,1330 Z" stroke="#000000" stroke-width="4.0" fill="none"/>
<circle cx="600.0" cy="1280.0" r="2.0" stroke="#0000b2" stroke-width="4.0" fill="#0000b2" />
<circle cx="600.0" cy="1300.0" r="2.0" stroke="#0000b2" stroke-width="4.0" fill="#0000b2" />
<circle cx="600.0" cy="1320.0" r="2.0" stroke="#0000b2" stroke-width="4.0" fill="#0000b2" />
<circle cx="680.0" cy="1300.0" r="2.0" stroke="#b20000" stroke-width="4.0" fill="#b20000" />
</g>
<g>
<path d="M 630,1410 L 600,1410 C 610,1394 610,1366 600,1350 L 620,1350 C 650,1350 670,1360 680,1380 C 670,1400 650,1410 630,1410 Z" stroke="#000000" stroke-width="4.0" fill="none"/>
<circle cx="600.0" cy="1360.0" r="2.0" stroke="#0000b2" stroke-width="4.0" fill="#0000b2" />
<circle cx="600.0" cy="1380.0" r="2.0" stroke="#0000b2" stroke-width="4.0" fill="#0000b2" />
<circle cx="600.0" cy="1400.0" r="2.0" stroke="#0000b2" stroke-width="4.0" fill="#0000b2" />
<circle cx="680.0" cy="1380.0" r="2.0" stroke="#b20000" stroke-width="4.0" fill="#b20000" />
</g>
<g>
<path d="M 630,1530 L 600,1530 C 610,1514 610,1486 600,1470 L 620,1470 C 650,1470 670,1480 680,1500 C 670,1520 650,1530 630,1530 Z" stroke="#000000" stroke-width="4.0" fill="none"/>
<circle cx="600.0" cy="1480.0" r="2.0" stroke="#0000b2" stroke-width="4.0" fill="#0000b2" />
<circle cx="600.0" cy="1500.0" r="2.0" stroke="#0000b2" stroke-width="4.0" fill="#0000b2" />
<circle cx="600.0" cy="1520.0" r="2.0" stroke="#0000b2" stroke-width="4.0" fill="#0000b2" />
<circle cx="680.0" cy="1500.0" r="2.0" stroke="#b20000" stroke-width="4.0" fill="#b20000" />
</g>
<g>
<path d="M 630,1690 L 600,1690 C 610,1674 610,1646 600,1630 L 620,1630 C 650,1630 670,1640 680,1660 C 670,1680 650,1690 630,1690 Z" stroke="#000000" stroke-width="4.0" fill="none"/>
<circle cx="600.0" cy="1640.0" r="2.0" stroke="#0000b2" stroke-width="4.0" fill="#0000b2" />
<circle cx="600.0" cy="1660.0" r="2.0" stroke="#0000b2" stroke-width="4.0" fill="#0000b2" />
<circle cx="600.0" cy="1680.0" r="2.0" stroke="#0000b2" stroke-width="4.0" fill="#0000b2" />
<circle cx="680.0" cy="1660.0" r="2.0" stroke="#b20000" stroke-width="4.0" fill="#b20000" />
</g>
<g>
<path d="M 630,1610 L 600,1610 C 610,1594 610,1566 600,1550 L 620,1550 C 650,1550 670,1560 680,1580 C 670,1600 650,1610 630,1610 Z" stroke="#000000" stroke-width="4.0" fill="none"/>
<circle cx="600.0" cy="1560.0" r="2.0" stroke="#0000b2" stroke-width="4.0" fill="#0000b2" />
<circle cx="600.0" cy="1580.0" r="2.0" stroke="#0000b2" stroke-width="4.0" fill="#0000b2" />
<circle cx="600.0" cy="1600.0" r="2.0" stroke="#0000b2" stroke-width="4.0" fill="#0000b2" />
<circle cx="680.0" cy="1580.0" r="2.0" stroke="#b20000" stroke-width="4.0" fill="#b20000" />
</g>
<g>
<path d="M 630,1770 L 600,1770 C 610,1754 610,1726 600,1710 L 620,1710 C 650,1710 670,1720 680,1740 C 670,1760 650,1770 630,1770 Z" stroke="#000000" stroke-width="4.0" fill="none"/>
<circle cx="600.0" cy="1720.0" r="2.0" stroke="#0000b2" stroke-width="4.0" fill="#0000b2" />
<circle cx="600.0" cy="1740.0" r="2.0" stroke="#0000b2" stroke-width="4.0" fill="#0000b2" />
<circle cx="600.0" cy="1760.0" r="2.0" stroke="#0000b2" stroke-width="4.0" fill="#0000b2" />
<circle cx="680.0" cy="1740.0" r="2.0" stroke="#b20000" stroke-width="4.0" fill="#b20000" />
</g>
<g>
<path d="M 650,910 L 601,910 L 601,850 L 650,850 C 660,850 680,860 679,880 C 679,900 660,910 650,910 Z" stroke="#000000" stroke-width="4.0" fill="none"/>
<circle cx="600.0" cy="860.0" r="2.0" stroke="#0000b2" stroke-width="4.0" fill="#0000b2" />
<circle cx="600.0" cy="880.0" r="2.0" stroke="#0000b2" stroke-width="4.0" fill="#0000b2" />
<circle cx="600.0" cy="900.0" r="2.0" stroke="#0000b2" stroke-width="4.0" fill="#0000b2" />
<circle cx="680.0" cy="880.0" r="2.0" stroke="#b20000" stroke-width="4.0" fill="#b20000" />
</g>
</g>
</svg>